<?xml version="1.0" encoding="UTF-8"?>
<svg version="1.1" xmlns="http://www.w3.org/2000/svg" width="590" height="115">
<path d="M0 0 C194.7 0 389.4 0 590 0 C590 37.95 590 75.9 590 115 C395.3 115 200.6 115 0 115 C0 77.05 0 39.1 0 0 Z " fill="#492812" transform="translate(0,0)"/>
<path d="M0 0 C16.83 0 33.66 0 51 0 C51 31.35 51 62.7 51 95 C212.7 95 374.4 95 541 95 C541 63.65 541 32.3 541 0 C557.17 0 573.34 0 590 0 C590 37.95 590 75.9 590 115 C395.3 115 200.6 115 0 115 C0 77.05 0 39.1 0 0 Z " fill="#E0DBD7" transform="translate(0,0)"/>
<path d="M0 0 C0.88461058 -0.00085442 1.76922117 -0.00170885 2.68063813 -0.00258917 C5.65635987 -0.00424139 8.63202573 0.00127324 11.60774231 0.00672913 C13.73623656 0.00701108 15.86473091 0.00685311 17.9932251 0.00628662 C23.7821275 0.00599896 29.57100931 0.01189061 35.35990691 0.01886058 C41.40575923 0.02509936 47.451612 0.02569833 53.49746704 0.02688599 C64.95089553 0.02999775 76.4043145 0.03820906 87.85773879 0.04823548 C103.33140706 0.06148806 118.80507791 0.06689777 134.27875042 0.07273769 C158.66552112 0.08214904 183.05227175 0.10206901 207.43904114 0.12025452 C207.43904114 31.47025452 207.43904114 62.82025452 207.43904114 95.12025452 C194.42466614 95.14087952 181.41029114 95.16150452 168.00154114 95.18275452 C163.92753967 95.19185852 159.85353821 95.20096252 155.65608215 95.21034241 C150.59126282 95.21485901 150.59126282 95.21485901 148.20281982 95.21569824 C146.57273076 95.21721053 144.94264265 95.22067753 143.31256104 95.22583008 C131.98132241 95.25978356 120.74286657 94.92154999 109.43904114 94.12025452 C110.05134583 93.85084045 110.66365051 93.58142639 111.29450989 93.30384827 C114.44883288 91.56293776 115.72582374 89.22942683 117.43904114 86.12025452 C117.10904114 85.13025452 116.77904114 84.14025452 116.43904114 83.12025452 C112.47904114 82.46025452 108.51904114 81.80025452 104.43904114 81.12025452 C104.76904114 72.87025452 105.09904114 64.62025452 105.43904114 56.12025452 C102.79904114 56.12025452 100.15904114 56.12025452 97.43904114 56.12025452 C97.15029114 57.35775452 96.86154114 58.59525452 96.56404114 59.87025452 C95.819719 62.83181796 95.10146065 65.52272403 93.43904114 68.12025452 C88.36185907 70.65884555 82.11550326 69.12025452 76.43904114 69.12025452 C76.43904114 52.29025452 76.43904114 35.46025452 76.43904114 18.12025452 C80.43904114 16.12025452 80.43904114 16.12025452 83.43904114 16.12025452 C83.43904114 13.81025452 83.43904114 11.50025452 83.43904114 9.12025452 C73.53904114 9.12025452 63.63904114 9.12025452 53.43904114 9.12025452 C53.43904114 11.43025452 53.43904114 13.74025452 53.43904114 16.12025452 C55.41904114 16.45025452 57.39904114 16.78025452 59.43904114 17.12025452 C59.51493507 23.49224746 59.56757463 29.86412443 59.60383606 36.23646545 C59.61894814 38.40545507 59.63943849 40.57441402 59.6653595 42.74330139 C59.70163648 45.85600848 59.71874303 48.96831257 59.73200989 52.08119202 C59.74749374 53.05518951 59.7629776 54.02918701 59.77893066 55.03269958 C59.77915726 55.93348236 59.77938385 56.83426514 59.77961731 57.76234436 C59.78961006 58.95481277 59.78961006 58.95481277 59.79980469 60.17137146 C59.68075272 60.81450287 59.56170074 61.45763428 59.43904114 62.12025452 C58.44904114 62.78025452 57.45904114 63.44025452 56.43904114 64.12025452 C55.2576864 57.63675645 55.3258114 51.25810945 55.37654114 44.68275452 C55.38105286 43.56964905 55.38556458 42.45654358 55.39021301 41.30970764 C55.40192921 38.57983351 55.41833415 35.85007278 55.43904114 33.12025452 C52.36450554 33.89664772 52.36450554 33.89664772 50.43904114 36.12025452 C49.88216614 35.66650452 49.32529114 35.21275452 48.75154114 34.74525452 C46.38590674 33.08291683 44.14888456 32.09880909 41.43904114 31.12025452 C41.10904114 32.11025452 40.77904114 33.10025452 40.43904114 34.12025452 C40.10904114 34.12025452 39.77904114 34.12025452 39.43904114 34.12025452 C39.42445862 34.85550354 39.4098761 35.59075256 39.39485168 36.34828186 C39.31964859 39.73109232 39.22322931 43.11299262 39.12654114 46.49525452 C39.10398254 47.65154358 39.08142395 48.80783264 39.05818176 49.99916077 C38.77453846 59.12731804 38.10157806 68.65880902 31.39216614 75.51478577 C21.90381495 83.31421045 12.49091249 84.14952157 0.67512512 83.37757874 C-8.10438868 82.36724927 -15.25438958 79.60168316 -20.85124207 72.59925842 C-27.94346381 62.31589135 -27.0470164 50.27111761 -26.81095886 38.37025452 C-26.79085051 36.59423313 -26.77260746 34.8181896 -26.75627136 33.04212952 C-26.71264784 28.73428109 -26.64386445 24.42751865 -26.56095886 20.12025452 C-27.53033386 20.14087952 -28.49970886 20.16150452 -29.49845886 20.18275452 C-32.56095886 20.12025452 -32.56095886 20.12025452 -33.56095886 19.12025452 C-33.66005189 16.78865397 -33.6906639 14.4539551 -33.68595886 12.12025452 C-33.68853699 10.84150452 -33.69111511 9.56275452 -33.69377136 8.24525452 C-33.56095886 5.12025452 -33.56095886 5.12025452 -32.56095886 4.12025452 C-31.17028703 3.98804865 -29.77364677 3.91710326 -28.37736511 3.87416077 C-27.53238464 3.84128967 -26.68740417 3.80841858 -25.81681824 3.77455139 C-24.02527606 3.71349085 -22.23360197 3.65618195 -20.44181824 3.60267639 C-19.17241394 3.55143616 -19.17241394 3.55143616 -17.87736511 3.49916077 C-16.70862854 3.46157654 -16.70862854 3.46157654 -15.51628113 3.42323303 C-13.32830047 3.28125837 -13.32830047 3.28125837 -11.56095886 1.12025452 C-7.6891949 -0.17033347 -4.03439309 -0.01412944 0 0 Z " fill="#4E2B15" transform="translate(333.5609588623047,-0.1202545166015625)"/>
<path d="M0 0 C6.68940961 -0.09922675 13.3783863 -0.17163877 20.06835938 -0.21972656 C22.34187284 -0.23978317 24.6153351 -0.26703538 26.88867188 -0.30175781 C30.16549349 -0.35053712 33.44163025 -0.37302897 36.71875 -0.390625 C38.23172668 -0.42159271 38.23172668 -0.42159271 39.77526855 -0.45318604 C48.60672235 -0.45596427 54.39879729 2.15322046 61 8 C61.53625 8.556875 62.0725 9.11375 62.625 9.6875 C64.08068897 11.26372838 64.08068897 11.26372838 67 12 C67 10.35 67 8.7 67 7 C67.33 7 67.66 7 68 7 C68.495 10.465 68.495 10.465 69 14 C71.97 14.495 71.97 14.495 75 15 C75.0093457 16.08829102 75.01869141 17.17658203 75.02832031 18.29785156 C75.06862516 22.39101973 75.13448931 26.48346777 75.20751953 30.57617188 C75.235497 32.33714446 75.25682526 34.0982372 75.27099609 35.859375 C75.38171358 48.85022641 75.52500092 61.54204155 85.140625 71.4453125 C93.51892403 78.45069699 106.33756714 77.83721482 116.68994141 77.26513672 C123.98874107 76.4274178 129.9952908 72.7160092 134.625 67.125 C139.08343403 60.88319236 139.30893247 53.07574919 139.4140625 45.6875 C139.43342865 44.83317383 139.4527948 43.97884766 139.4727478 43.09863281 C139.5320053 40.39918662 139.57871122 37.69969651 139.625 35 C139.66322946 33.15753461 139.70228399 31.31508614 139.7421875 29.47265625 C139.83766176 24.98191007 139.92188873 20.49108038 140 16 C140.33 16 140.66 16 141 16 C141.33 19.96 141.66 23.92 142 28 C142.33 27.34 142.66 26.68 143 26 C143.94875 26.350625 144.8975 26.70125 145.875 27.0625 C148.87060172 28.35026777 148.87060172 28.35026777 151 27 C151.33 27.99 151.66 28.98 152 30 C152.66 29.34 153.32 28.68 154 28 C154.99 28 155.98 28 157 28 C157.02505615 28.69561035 157.0501123 29.3912207 157.07592773 30.10791016 C157.19245974 33.28043455 157.31492568 36.45270355 157.4375 39.625 C157.47681641 40.71941406 157.51613281 41.81382813 157.55664062 42.94140625 C157.61948242 44.53662109 157.61948242 44.53662109 157.68359375 46.1640625 C157.72025146 47.13811035 157.75690918 48.1121582 157.79467773 49.11572266 C158.00893288 52.1254852 158.45931357 55.03295916 159 58 C160.55658482 56.44341518 160.16309399 54.92132264 160.20532227 52.75561523 C160.22526749 51.85475693 160.24521271 50.95389862 160.26576233 50.02574158 C160.28247482 49.04658279 160.29918732 48.06742401 160.31640625 47.05859375 C160.3475779 45.56248314 160.3475779 45.56248314 160.37937927 44.03614807 C160.44498637 40.83667157 160.50381134 37.63711018 160.5625 34.4375 C160.60567462 32.27407961 160.64928855 30.11066794 160.69335938 27.94726562 C160.80067903 22.63160126 160.90242427 17.31585166 161 12 C159.02 11.67 157.04 11.34 155 11 C155 8.69 155 6.38 155 4 C164.9 4 174.8 4 185 4 C185 6.31 185 8.62 185 11 C183.02 11.66 181.04 12.32 179 13 C178.67 29.83 178.34 46.66 178 64 C186.415 63.505 186.415 63.505 195 63 C195.474375 61.39125 195.94875 59.7825 196.4375 58.125 C197.875 53.25 197.875 53.25 199 51 C201.64 51 204.28 51 207 51 C207 58.92 207 66.84 207 75 C209.29629994 76.14814997 211.07698086 76.30769809 213.625 76.5625 C214.85089844 76.68818359 214.85089844 76.68818359 216.1015625 76.81640625 C216.72804688 76.87699219 217.35453125 76.93757813 218 77 C218.66 78.65 219.32 80.3 220 82 C219.01 82.495 219.01 82.495 218 83 C217.01 84.65 216.02 86.3 215 88 C219.29 88.33 223.58 88.66 228 89 C228 89.33 228 89.66 228 90 C200.7826207 90.02340881 173.56524292 90.04101829 146.34785557 90.05181217 C133.70903244 90.05695821 121.07021558 90.06396852 108.43139648 90.07543945 C97.40941693 90.08543814 86.38744192 90.09186573 75.36545795 90.09408849 C69.53488314 90.09538682 63.70432132 90.09841673 57.87375069 90.10573006 C52.37367405 90.11257224 46.87361564 90.11460046 41.37353516 90.11310768 C39.36659076 90.11338035 37.35964569 90.11533644 35.352705 90.11920547 C23.52822799 90.14086198 11.79531625 89.85292513 0 89 C1.485 88.505 1.485 88.505 3 88 C3 85.36 3 82.72 3 80 C3.639375 79.87625 4.27875 79.7525 4.9375 79.625 C5.9584375 79.315625 5.9584375 79.315625 7 79 C7.495 78.01 7.495 78.01 8 77 C5.36 77 2.72 77 0 77 C0 72.05 0 67.1 0 62 C3.465 61.505 3.465 61.505 7 61 C6.67 46.15 6.34 31.3 6 16 C3.03 15.505 3.03 15.505 0 15 C0 10.05 0 5.1 0 0 Z " fill="#4B2B15" transform="translate(232,5)"/>
<path d="M0 0 C145.53 0 291.06 0 441 0 C440.34 0.99 439.68 1.98 439 3 C435.94924916 3.266487 433.10373821 3.34757146 430.0546875 3.29296875 C429.1696756 3.28872391 428.2846637 3.28447906 427.37283325 3.28010559 C424.53991555 3.26328259 421.70770348 3.22562425 418.875 3.1875 C416.95704151 3.17245782 415.03907189 3.15876861 413.12109375 3.14648438 C408.41378969 3.11336727 403.70701456 3.06156055 399 3 C399 8.28 399 13.56 399 19 C280.86 19 162.72 19 41 19 C40.505 11.575 40.505 11.575 40 4 C20.2 3.505 20.2 3.505 0 3 C0 2.01 0 1.02 0 0 Z " fill="#FEFEFE" transform="translate(75,96)"/>
<path d="M0 0 C14.52 0 29.04 0 44 0 C44 31.02 44 62.04 44 94 C17.6 94 -8.8 94 -36 94 C-34.35 92.35 -32.7 90.7 -31 89 C-30.16662109 87.67548828 -30.16662109 87.67548828 -29.31640625 86.32421875 C-27.5625 83.6875 -27.5625 83.6875 -22 79 C-14.74 79 -7.48 79 0 79 C0 52.93 0 26.86 0 0 Z " fill="#4B2914" transform="translate(546,21)"/>
<path d="M0 0 C0.99261337 0.00222061 1.98522675 0.00444122 3.00791931 0.00672913 C4.14475159 0.00684998 5.28158386 0.00697083 6.4528656 0.00709534 C8.25890259 0.01476929 8.25890259 0.01476929 10.10142517 0.02259827 C11.75120361 0.02410889 11.75120361 0.02410889 13.43431091 0.02565002 C17.56164078 0.0309009 21.68895585 0.04486201 25.81626892 0.05775452 C39.64533142 0.08869202 39.64533142 0.08869202 53.75376892 0.12025452 C53.75376892 31.47025452 53.75376892 62.82025452 53.75376892 95.12025452 C40.73939392 95.14087952 27.72501892 95.16150452 14.31626892 95.18275452 C10.24226746 95.19185852 6.16826599 95.20096252 1.97080994 95.21034241 C-3.0940094 95.21485901 -3.0940094 95.21485901 -5.48245239 95.21569824 C-7.11254145 95.21721053 -8.74262956 95.22067753 -10.37271118 95.22583008 C-21.70394981 95.25978356 -32.94240565 94.92154999 -44.24623108 94.12025452 C-43.32777405 93.71419983 -43.32777405 93.71419983 -42.39076233 93.29994202 C-39.21160164 91.5511141 -37.94658368 89.26905562 -36.24623108 86.12025452 C-36.57623108 84.80025452 -36.90623108 83.48025452 -37.24623108 82.12025452 C-29.32623108 82.12025452 -21.40623108 82.12025452 -13.24623108 82.12025452 C-13.74123108 75.19025452 -13.74123108 75.19025452 -14.24623108 68.12025452 C-15.89623108 67.46025452 -17.54623108 66.80025452 -19.24623108 66.12025452 C-18.91623108 64.47025452 -18.58623108 62.82025452 -18.24623108 61.12025452 C-12.96623108 61.12025452 -7.68623108 61.12025452 -2.24623108 61.12025452 C-1.75123108 64.09025452 -1.75123108 64.09025452 -1.24623108 67.12025452 C-3.72123108 67.61525452 -3.72123108 67.61525452 -6.24623108 68.12025452 C-6.57623108 72.74025452 -6.90623108 77.36025452 -7.24623108 82.12025452 C5.95376892 82.12025452 19.15376892 82.12025452 32.75376892 82.12025452 C32.75376892 77.17025452 32.75376892 72.22025452 32.75376892 67.12025452 C30.44376892 66.79025452 28.13376892 66.46025452 25.75376892 66.12025452 C24.24888611 64.14686584 24.24888611 64.14686584 23.30064392 61.38978577 C22.90683533 60.30133362 22.51302673 59.21288147 22.10728455 58.09144592 C21.89595886 57.46739868 21.68463318 56.84335144 21.46690369 56.20039368 C20.67437004 53.88865632 19.83021658 51.59975654 18.9783783 49.30921936 C17.29515914 44.76883405 15.65183543 40.21524924 14.02281189 35.65516663 C12.99881748 32.79391919 11.96436469 29.9365881 10.92955017 27.07923889 C10.27135753 25.24287982 9.61378335 23.40629892 8.95689392 21.56947327 C8.64963379 20.72454819 8.34237366 19.87962311 8.02580261 19.00909424 C7.59965668 17.80667839 7.59965668 17.80667839 7.16490173 16.57997131 C6.91572998 15.88558456 6.66655823 15.19119781 6.40983582 14.47576904 C5.5600986 11.42490888 5.20164839 8.25541082 4.75376892 5.12025452 C-2.50623108 5.12025452 -9.76623108 5.12025452 -17.24623108 5.12025452 C-17.24623108 4.79025452 -17.24623108 4.46025452 -17.24623108 4.12025452 C-12.29623108 4.12025452 -7.34623108 4.12025452 -2.24623108 4.12025452 C-2.74123108 2.63525452 -2.74123108 2.63525452 -3.24623108 1.12025452 C-2.24623108 0.12025452 -2.24623108 0.12025452 0 0 Z " fill="#4A2812" transform="translate(487.24623107910156,-0.1202545166015625)"/>
<path d="M0 0 C14.85 0 29.7 0 45 0 C45 26.07 45 52.14 45 79 C51.6 79 58.2 79 65 79 C69.03025395 81.54352346 70.30364487 82.35160338 72.75 85.9375 C73.27980469 86.59685547 73.80960937 87.25621094 74.35546875 87.93554688 C78 92.55037541 78 92.55037541 78 94 C52.59 94 27.18 94 1 94 C1.8975294 89.51235299 3.05681088 86.39473526 4.984375 82.30078125 C5.28184631 81.66569138 5.57931763 81.0306015 5.88580322 80.37626648 C6.83542423 78.35256152 7.79272052 76.33259153 8.75 74.3125 C9.37807981 72.9748326 10.00568829 71.63694379 10.6328125 70.29882812 C11.24971627 68.98684572 11.86690045 67.67499512 12.484375 66.36328125 C12.78468628 65.72383575 13.08499756 65.08439026 13.39440918 64.42556763 C15.52989268 59.90923757 17.81641851 55.49505849 20.25878906 51.13745117 C21.58663315 47.30830922 20.25104452 44.58230667 18.6965332 40.9765625 C18.15343506 39.87054688 17.61033691 38.76453125 17.05078125 37.625 C16.75568161 37.01922119 16.46058197 36.41344238 16.15653992 35.78930664 C15.21393903 33.85683457 14.26359364 31.92830427 13.3125 30 C12.07718756 27.4802599 10.84475802 24.95911671 9.61328125 22.4375 C9.3116507 21.8199585 9.01002014 21.20241699 8.69924927 20.56616211 C0 2.7120095 0 2.7120095 0 0 Z " fill="#4A2812" transform="translate(1,21)"/>
<path d="M0 0 C5.51345681 -0.0996177 11.02637828 -0.1718191 16.54052734 -0.21972656 C18.41236509 -0.23971863 20.28414138 -0.26692168 22.15576172 -0.30175781 C45.26385604 -0.72078459 45.26385604 -0.72078459 53.0625 6.625 C56.92922197 11.36485274 56.58722092 16.06906867 56 22 C53.51983364 27.456366 50.16914846 29.41542577 45 32 C45.67546875 32.30292969 46.3509375 32.60585938 47.046875 32.91796875 C52.95942317 35.69481579 56.98907646 37.97815292 60 44 C60.53749296 48.89911617 60.56674874 52.8447045 58.375 57.3125 C52.41004882 64.06231317 46.04337814 68.33057054 36.81594849 69.20758057 C30.81533703 69.49466895 24.81621565 69.36529919 18.8125 69.25 C16.98374358 69.22989843 15.15496576 69.21165415 13.32617188 69.1953125 C8.88357815 69.15161983 4.44202996 69.08279646 0 69 C0 66.69 0 64.38 0 62 C1.98 61.34 3.96 60.68 6 60 C6 43.17 6 26.34 6 9 C4.02 8.34 2.04 7.68 0 7 C0 4.69 0 2.38 0 0 Z " fill="#F7F6F0" transform="translate(236,9)"/>
<path d="M0 0 C19.06279088 -2.34289942 19.06279088 -2.34289942 24.95947266 1.16601562 C28.35912639 4.44755933 30.50872364 8.52345546 32.70166016 12.66748047 C35.08361553 16.94675871 37.99807367 20.87302691 40.8125 24.875 C41.8644367 26.41149528 42.91272756 27.95049415 43.95703125 29.4921875 C44.40022705 30.14558105 44.84342285 30.79897461 45.30004883 31.47216797 C47.87874924 35.30670252 50.4367478 39.15512169 53 43 C53 31.78 53 20.56 53 9 C50.69 8.01 48.38 7.02 46 6 C46 4.02 46 2.04 46 0 C54.91 0 63.82 0 73 0 C73 1.98 73 3.96 73 6 C67.25 8 67.25 8 65 8 C65 27.8 65 47.6 65 68 C60.05 68 55.1 68 50 68 C46.11236172 64.05176687 43.96781156 61.29428081 41.3125 56.625 C40.61010409 55.48103092 39.90235671 54.34033141 39.18945312 53.20288086 C37.76410368 50.91554943 36.36690815 48.61458746 34.99072266 46.29736328 C32.15790541 41.60518402 29.0860279 37.09018632 26 32.5625 C21.20330391 25.40660782 21.20330391 25.40660782 20 23 C19.67 35.21 19.34 47.42 19 60 C22.465 60.495 22.465 60.495 26 61 C26 63.31 26 65.62 26 68 C17.75 68 9.5 68 1 68 C1 66.02 1 64.04 1 62 C3.31 61.34 5.62 60.68 8 60 C8 42.84 8 25.68 8 8 C5.69 7.67 3.38 7.34 1 7 C0 6 0 6 -0.0625 2.9375 C-0.041875 1.968125 -0.02125 0.99875 0 0 Z " fill="#F7F5F0" transform="translate(85,9)"/>
<path d="M0 0 C16.83 0 33.66 0 51 0 C51 31.35 51 62.7 51 95 C54.63 95 58.26 95 62 95 C63.65 95.33 65.3 95.66 67 96 C66.505 97.485 66.505 97.485 66 99 C59.73 99 53.46 99 47 99 C46.67 73.59 46.34 48.18 46 22 C31.15 21.67 16.3 21.34 1 21 C6.74192882 32.77220352 6.74192882 32.77220352 12.48730469 44.54272461 C13.2156179 46.03753768 13.94381545 47.53240711 14.671875 49.02734375 C15.04006348 49.78019653 15.40825195 50.53304932 15.78759766 51.30871582 C16.51112274 52.79577548 17.22878024 54.28570796 17.93981934 55.77877808 C18.67608069 57.32134522 19.42869387 58.85617148 20.19396973 60.384552 C23.01856778 66.24617568 23.01856778 66.24617568 22.93432617 69.66625977 C21.74959586 72.62545418 20.46293829 75.48054522 19.05078125 78.33984375 C18.75568161 78.94325089 18.46058197 79.54665802 18.15653992 80.16835022 C17.21398626 82.09413895 16.26390212 84.01606928 15.3125 85.9375 C14.07503372 88.44447786 12.84164633 90.95339353 11.61328125 93.46484375 C11.3116507 94.08152924 11.01002014 94.69821472 10.69924927 95.33358765 C7.56918412 101.79186596 4.76001364 108.37609496 2 115 C1.34 115 0.68 115 0 115 C0 77.05 0 39.1 0 0 Z " fill="#FCFCFC" transform="translate(0,0)"/>
<path d="M0 0 C0.33 0 0.66 0 1 0 C1 31.02 1 62.04 1 94 C52.15 94 103.3 94 156 94 C156 93.01 156 92.02 156 91 C156.66 90.38125 157.32 89.7625 158 89.125 C160.57113725 86.87952574 160.57113725 86.87952574 160 82 C167.92 81.505 167.92 81.505 176 81 C176.66 72.09 177.32 63.18 178 54 C172.72 54 167.44 54 162 54 C161.01 57.3 160.02 60.6 159 64 C154.71 64 150.42 64 146 64 C146 60.04 146 56.08 146 52 C156.395 51.505 156.395 51.505 167 51 C167 45.06 167 39.12 167 33 C165.56785156 33.01160156 164.13570312 33.02320313 162.66015625 33.03515625 C160.79427213 33.04453255 158.92838661 33.05363292 157.0625 33.0625 C156.11697266 33.07087891 155.17144531 33.07925781 154.19726562 33.08789062 C152.84858398 33.09272461 152.84858398 33.09272461 151.47265625 33.09765625 C150.22367554 33.10551147 150.22367554 33.10551147 148.94946289 33.11352539 C147 33 147 33 146 32 C145.85742811 28.66381769 145.95771843 25.34024394 146 22 C149.63 22 153.26 22 157 22 C158.98 26.455 158.98 26.455 161 31 C165.95 31.33 170.9 31.66 176 32 C176 23.09 176 14.18 176 5 C164.45 4.67 152.9 4.34 141 4 C141.33 2.68 141.66 1.36 142 0 C185.56 0 229.12 0 274 0 C272.71099916 2.57800168 271.64176455 2.92877899 269 4 C266.80175781 4.31884766 266.80175781 4.31884766 264.453125 4.4140625 C263.60878906 4.45273438 262.76445312 4.49140625 261.89453125 4.53125 C260.58548828 4.57765625 260.58548828 4.57765625 259.25 4.625 C258.36183594 4.66367188 257.47367187 4.70234375 256.55859375 4.7421875 C254.37272833 4.83620322 252.18639308 4.91918002 250 5 C249.34 8.96 248.68 12.92 248 17 C242.4970652 15.89941304 241.65078512 14.93161474 238 11 C233.72724385 7.394862 229.62405972 5.76977403 224.02612305 5.68115234 C222.58519539 5.65134781 222.58519539 5.65134781 221.11515808 5.62094116 C220.0910231 5.60938995 219.06688812 5.59783875 218.01171875 5.5859375 C216.95338333 5.56657135 215.89504791 5.5472052 214.80464172 5.5272522 C211.43234252 5.46758752 208.06000894 5.42112307 204.6875 5.375 C202.39777177 5.33680819 200.10805772 5.29775576 197.81835938 5.2578125 C192.21235509 5.16189656 186.60628355 5.07781672 181 5 C181 9.95 181 14.9 181 20 C182.98 20 184.96 20 187 20 C188 21 188 21 188.12025452 22.82862854 C188.11803391 23.62582809 188.11581329 24.42302765 188.11352539 25.24438477 C188.11344986 26.14524307 188.11337433 27.04610138 188.11329651 27.97425842 C188.10813522 28.95341721 188.10297394 29.93257599 188.09765625 30.94140625 C188.09553383 32.43751686 188.09553383 32.43751686 188.09336853 33.96385193 C188.08775114 37.16343124 188.07519571 40.36294169 188.0625 43.5625 C188.05748724 45.72591045 188.05292395 47.88932199 188.04882812 50.05273438 C188.03777607 55.36851325 188.02102104 60.68425171 188 66 C184.535 66.495 184.535 66.495 181 67 C181 71.95 181 76.9 181 82 C183.64 82 186.28 82 189 82 C188.67 82.99 188.34 83.98 188 85 C186.68 85 185.36 85 184 85 C184.185625 85.5775 184.37125 86.155 184.5625 86.75 C185 89 185 89 184 93 C190.93 93.495 190.93 93.495 198 94 C198 94.33 198 94.66 198 95 C132.66 95 67.32 95 0 95 C0 63.65 0 32.3 0 0 Z " fill="#4E2D17" transform="translate(51,0)"/>
<path d="M0 0 C1.39456452 0.00667256 2.78911118 0.01863093 4.18359375 0.03515625 C5.2499707 0.04192383 5.2499707 0.04192383 6.33789062 0.04882812 C8.09899388 0.06064761 9.86005411 0.07858362 11.62109375 0.09765625 C16.34484139 10.67321068 20.05102922 21.60920773 23.83422852 32.54638672 C24.9435739 35.75149074 26.06027828 38.9539659 27.17773438 42.15625 C27.88454921 44.19125534 28.59094504 46.22640628 29.296875 48.26171875 C29.6311702 49.21994537 29.96546539 50.178172 30.30989075 51.16543579 C30.76618111 52.48854263 30.76618111 52.48854263 31.23168945 53.83837891 C31.50084671 54.61492828 31.77000397 55.39147766 32.0473175 56.19155884 C32.62109375 58.09765625 32.62109375 58.09765625 32.62109375 60.09765625 C34.60109375 60.42765625 36.58109375 60.75765625 38.62109375 61.09765625 C38.62109375 63.73765625 38.62109375 66.37765625 38.62109375 69.09765625 C28.39109375 69.09765625 18.16109375 69.09765625 7.62109375 69.09765625 C7.62109375 67.11765625 7.62109375 65.13765625 7.62109375 63.09765625 C10.26848291 61.63702775 11.51557709 61.09765625 14.62109375 61.09765625 C14.40453125 60.33839844 14.18796875 59.57914063 13.96484375 58.796875 C13.68640625 57.80300781 13.40796875 56.80914062 13.12109375 55.78515625 C12.84265625 54.79902344 12.56421875 53.81289063 12.27734375 52.796875 C11.62109375 50.09765625 11.62109375 50.09765625 11.62109375 47.09765625 C4.36109375 47.09765625 -2.89890625 47.09765625 -10.37890625 47.09765625 C-12.18602588 53.74760697 -12.18602588 53.74760697 -12.37890625 60.09765625 C-10.39890625 60.75765625 -8.41890625 61.41765625 -6.37890625 62.09765625 C-6.37890625 64.40765625 -6.37890625 66.71765625 -6.37890625 69.09765625 C-14.62890625 69.09765625 -22.87890625 69.09765625 -31.37890625 69.09765625 C-31.37890625 66.78765625 -31.37890625 64.47765625 -31.37890625 62.09765625 C-30.60562988 61.88077148 -29.83235352 61.66388672 -29.03564453 61.44042969 C-25.55036762 59.67889477 -25.17857349 58.24741629 -23.87109375 54.61328125 C-23.44683105 53.46375977 -23.02256836 52.31423828 -22.58544922 51.12988281 C-22.14131892 49.86924017 -21.6974783 48.60849543 -21.25390625 47.34765625 C-20.78448612 46.05762232 -20.31326658 44.76824186 -19.84033203 43.47949219 C-18.84806368 40.76598284 -17.8668536 38.04884461 -16.89453125 35.328125 C-14.62841607 28.98976264 -12.30451527 22.67256049 -9.98687744 16.35290527 C-9.26015705 14.36475708 -8.53926317 12.37458234 -7.81982422 10.38378906 C-7.38299316 9.18077148 -6.94616211 7.97775391 -6.49609375 6.73828125 C-6.11050293 5.67125977 -5.72491211 4.60423828 -5.32763672 3.50488281 C-3.99176953 0.11536906 -3.99176953 0.11536906 0 0 Z " fill="#F6F4EC" transform="translate(476.37890625,8.90234375)"/>
<path d="M0 0 C9.9 0 19.8 0 30 0 C30 2.31 30 4.62 30 7 C28.02 7.66 26.04 8.32 24 9 C23.92553529 14.42599527 23.87124963 19.8516894 23.83520508 25.27807617 C23.82017012 27.12187892 23.79973667 28.96564622 23.77368164 30.80932617 C23.73706439 33.4680255 23.72022057 36.12624971 23.70703125 38.78515625 C23.69154739 39.60210464 23.67606354 40.41905304 23.66011047 41.26075745 C23.65856016 46.59933004 24.47015483 50.27094215 27 55 C30.39100112 58.14878675 33.02459542 59.25628584 37.5625 59.4375 C41.46713066 59.22750306 44.02972409 58.70819274 47 56 C49.99211901 50.38180225 50.40920454 45.86336183 50.29296875 39.56640625 C50.28660149 38.2495005 50.28660149 38.2495005 50.28010559 36.9059906 C50.2634229 34.1245042 50.22579085 31.34376436 50.1875 28.5625 C50.17243968 26.66732823 50.15875364 24.77214502 50.14648438 22.87695312 C50.1135536 18.25101803 50.06184428 13.62563523 50 9 C48.02 8.34 46.04 7.68 44 7 C44 4.69 44 2.38 44 0 C52.58 0 61.16 0 70 0 C70 2.31 70 4.62 70 7 C68.02 7.66 66.04 8.32 64 9 C63.9906543 10.18964355 63.98130859 11.37928711 63.97167969 12.60498047 C63.93151558 17.05961221 63.86568574 21.51357236 63.79248047 25.96777344 C63.76442306 27.88793243 63.74313351 29.80820364 63.72900391 31.72851562 C63.55395813 54.1810535 63.55395813 54.1810535 56.75 62.875 C47.53966503 69.99207702 37.35927369 71.41318888 26 70 C18.24691448 67.65312006 12.83371931 64.15627604 9 57 C6.78853175 51.71523405 6.65929751 46.86441038 6.5859375 41.2265625 C6.55688828 39.8409462 6.55688828 39.8409462 6.5272522 38.42733765 C6.46774295 35.49331736 6.42118605 32.55925724 6.375 29.625 C6.33679383 27.62888968 6.29774058 25.63279537 6.2578125 23.63671875 C6.16206504 18.75794349 6.07792861 13.87909109 6 9 C4.02 8.34 2.04 7.68 0 7 C0 4.69 0 2.38 0 0 Z " fill="#F7F6F1" transform="translate(305,9)"/>
<path d="M0 0 C13.2 0 26.4 0 40 0 C40 4.62 40 9.24 40 14 C37.36 14.66 34.72 15.32 32 16 C32 30.19 32 44.38 32 59 C36.455 58.505 36.455 58.505 41 58 C43.0915032 55.31704343 43.0915032 55.31704343 44 52 C44.66 50.35 45.32 48.7 46 47 C50.95 47.33 55.9 47.66 61 48 C61 52.62 61 57.24 61 62 C62.98 61.505 62.98 61.505 65 61 C66.23086135 58.23134494 67.17134604 55.6308496 68.0625 52.75 C68.65988092 50.93221422 69.26173092 49.11589321 69.8671875 47.30078125 C70.19944336 46.30127441 70.53169922 45.30176758 70.87402344 44.27197266 C72.99609065 38.10546252 75.35304841 32.02597967 77.6875 25.9375 C78.60859 23.5301457 79.5291804 21.12260017 80.44921875 18.71484375 C80.88024902 17.58804199 81.3112793 16.46124023 81.75537109 15.30029297 C83.29309369 11.22282454 84.76434571 7.12339637 86.21411133 3.01391602 C87 1 87 1 88 0 C89.63472882 -0.08700342 91.27314055 -0.10701063 92.91015625 -0.09765625 C93.89951172 -0.09443359 94.88886719 -0.09121094 95.90820312 -0.08789062 C96.94912109 -0.07951172 97.99003906 -0.07113281 99.0625 -0.0625 C100.62967773 -0.05573242 100.62967773 -0.05573242 102.22851562 -0.04882812 C104.8190666 -0.03699913 107.40950559 -0.02051689 110 0 C110.34289062 1.06347656 110.68578125 2.12695312 111.0390625 3.22265625 C112.5500482 7.86104259 114.11065299 12.48187928 115.68066406 17.10058594 C116.66264677 19.99338208 117.62980851 22.89085893 118.59277344 25.79003906 C120.0622483 30.20523797 121.56410281 34.60852111 123.08270264 39.00704956 C123.69394156 40.79316136 124.29524716 42.58270361 124.88653564 44.3755188 C125.73146698 46.9307647 126.61142335 49.47137524 127.5 52.01171875 C127.74793304 52.78794586 127.99586609 53.56417297 128.25131226 54.36392212 C129.06817563 56.81884412 129.06817563 56.81884412 131 60 C133.31 60.66 135.62 61.32 138 62 C138 66.95 138 71.9 138 77 C124.8 77 111.6 77 98 77 C98 63 98 63 99 62 C100.66617115 61.95936168 102.33388095 61.957279 104 62 C103.505 59.03 103.505 59.03 103 56 C95.08 56.495 95.08 56.495 87 57 C86.67 58.32 86.34 59.64 86 61 C86.804375 61.144375 87.60875 61.28875 88.4375 61.4375 C91 62 91 62 92 63 C92.07271741 65.35313555 92.08370868 67.70833668 92.0625 70.0625 C92.05347656 71.35285156 92.04445313 72.64320312 92.03515625 73.97265625 C92.02355469 74.97167969 92.01195312 75.97070312 92 77 C87.35524041 77.04944066 82.71063404 77.08573863 78.06567383 77.10986328 C76.48556856 77.11992041 74.9054819 77.13356785 73.32543945 77.15087891 C71.0541525 77.17514022 68.78311164 77.18648582 66.51171875 77.1953125 C65.80536789 77.20563507 65.09901703 77.21595764 64.3712616 77.22659302 C60.67802208 77.22743775 59.16080784 77.10720523 56 75 C55.7512207 72.56982422 55.7512207 72.56982422 55.92578125 69.5546875 C55.98056641 68.47832031 56.03535156 67.40195313 56.09179688 66.29296875 C56.20104492 64.60107422 56.20104492 64.60107422 56.3125 62.875 C56.37373047 61.73933594 56.43496094 60.60367188 56.49804688 59.43359375 C56.6516579 56.62133039 56.81955472 53.81064856 57 51 C54.36 51 51.72 51 49 51 C48.71125 52.2375 48.4225 53.475 48.125 54.75 C47.38067786 57.71156344 46.66241951 60.40246951 45 63 C39.92281793 65.53859104 33.67646212 64 28 64 C28 47.17 28 30.34 28 13 C32 11 32 11 35 11 C35 8.69 35 6.38 35 4 C25.1 4 15.2 4 5 4 C5 6.31 5 8.62 5 11 C7.97 11.495 7.97 11.495 11 12 C11.07589394 18.37199294 11.1285335 24.74386991 11.16479492 31.11621094 C11.179907 33.28520056 11.20039735 35.4541595 11.22631836 37.62304688 C11.26259534 40.73575396 11.2797019 43.84805805 11.29296875 46.9609375 C11.30845261 47.934935 11.32393646 48.9089325 11.33988953 49.91244507 C11.34022942 51.26361923 11.34022942 51.26361923 11.34057617 52.64208984 C11.34723801 53.43706879 11.35389984 54.23204773 11.36076355 55.05111694 C11.24171158 55.69424835 11.12265961 56.33737976 11 57 C10.01 57.66 9.02 58.32 8 59 C7.1113167 53.68942541 6.86644119 48.60114055 6.90234375 43.22265625 C6.9037587 42.41130722 6.90517365 41.59995819 6.90663147 40.76402283 C6.91218643 38.19680953 6.92473033 35.62968652 6.9375 33.0625 C6.94252083 31.31185023 6.94708271 29.56119907 6.95117188 27.81054688 C6.96214107 23.5403303 6.97937418 19.27018041 7 15 C5.5459375 15.0309375 5.5459375 15.0309375 4.0625 15.0625 C1 15 1 15 0 14 C0 9.38 0 4.76 0 0 Z M91 4 C87.91197861 10.7266842 85.27108208 17.52568607 82.77734375 24.4921875 C81.98402305 26.68240003 81.19039434 28.872501 80.39648438 31.0625 C79.15977046 34.48474125 77.92570677 37.90787527 76.69702148 41.33300781 C75.5020611 44.65964094 74.29673813 47.98236877 73.08984375 51.3046875 C72.54129982 52.84683426 72.54129982 52.84683426 71.98167419 54.4201355 C71.63443802 55.37187653 71.28720184 56.32361755 70.92944336 57.30419922 C70.62840195 58.14087128 70.32736053 58.97754333 70.01719666 59.83956909 C68.94066121 62.12603005 67.95668068 63.41531901 66 65 C64.515 65.495 64.515 65.495 63 66 C63 68.31 63 70.62 63 73 C71.25 73 79.5 73 88 73 C88 70.69 88 68.38 88 66 C86.02 65.34 84.04 64.68 82 64 C82.52305433 59.59139921 83.12748816 55.36255922 84 51 C91.26 51 98.52 51 106 51 C108.25 61.125 108.25 61.125 109 65 C108.030625 65.144375 107.06125 65.28875 106.0625 65.4375 C103.13513227 65.67562341 103.13513227 65.67562341 102 67 C102 68.98 102 70.96 102 73 C112.23 73 122.46 73 133 73 C133 70.36 133 67.72 133 65 C131.02 64.67 129.04 64.34 127 64 C126.85739746 63.41984131 126.71479492 62.83968262 126.56787109 62.24194336 C124.35111631 53.6667727 121.44580113 45.36401205 118.49414062 37.02124023 C117.62860544 34.57269954 116.77092762 32.1215082 115.9140625 29.66992188 C112.86390805 20.98676247 109.64397071 12.45483092 106 4 C101.05 4 96.1 4 91 4 Z " fill="#100F0E" transform="translate(382,5)"/>
<path d="M0 0 C17.82 0 35.64 0 54 0 C54 6.27 54 12.54 54 19 C51.36 19 48.72 19 46 19 C44.68 16.03 43.36 13.06 42 10 C36.06 9.67 30.12 9.34 24 9 C24 15.27 24 21.54 24 28 C30.93 28 37.86 28 45 28 C45 31.3 45 34.6 45 38 C38.07 38 31.14 38 24 38 C24 45.26 24 52.52 24 60 C26.908125 59.938125 29.81625 59.87625 32.8125 59.8125 C33.72491455 59.80581299 34.6373291 59.79912598 35.57739258 59.79223633 C37.81122638 59.70541062 39.8320152 59.55632239 42 59 C44.11734188 56.75047818 44.11734188 56.75047818 45 54 C45.391875 53.071875 45.78375 52.14375 46.1875 51.1875 C46.455625 50.465625 46.72375 49.74375 47 49 C49.64 49 52.28 49 55 49 C55 55.27 55 61.54 55 68 C37.18 68 19.36 68 1 68 C1 66.02 1 64.04 1 62 C3.31 61.34 5.62 60.68 8 60 C7.67 43.17 7.34 26.34 7 9 C4.69 8.01 2.38 7.02 0 6 C0 4.02 0 2.04 0 0 Z " fill="#F8F7F4" transform="translate(169,9)"/>
<path d="M0 0 C10.76343231 0.28005104 10.76343231 0.28005104 14.63305664 3.84960938 C17.09774939 6.91876981 18.87119909 10.31474792 20.57446289 13.8515625 C22.58715747 17.76322064 25.22536357 21.24582154 27.77758789 24.81835938 C30.11545367 28.21801091 32.42643052 31.63537332 34.71508789 35.06835938 C34.71508789 29.45835938 34.71508789 23.84835938 34.71508789 18.06835938 C32.40508789 17.73835938 30.09508789 17.40835937 27.71508789 17.06835938 C27.68823694 14.58912137 27.66832242 12.11017098 27.65258789 9.63085938 C27.64420898 8.92380859 27.63583008 8.21675781 27.62719727 7.48828125 C27.61855201 5.68142378 27.66288778 3.87448335 27.71508789 2.06835938 C28.71508789 1.06835938 28.71508789 1.06835938 31.94970703 0.95483398 C33.38322915 0.95499307 34.81675702 0.9606853 36.25024414 0.97070312 C37.38012001 0.97282555 37.38012001 0.97282555 38.53282166 0.97499084 C40.94778349 0.98060562 43.3626539 0.99316055 45.77758789 1.00585938 C47.4110501 1.01087248 49.04451375 1.01543571 50.67797852 1.01953125 C54.69041219 1.02973062 58.70264725 1.04930293 62.71508789 1.06835938 C62.71508789 6.01835937 62.71508789 10.96835938 62.71508789 16.06835938 C60.40508789 16.72835938 58.09508789 17.38835938 55.71508789 18.06835938 C55.38508789 38.19835938 55.05508789 58.32835938 54.71508789 79.06835938 C47.78508789 79.06835938 40.85508789 79.06835938 33.71508789 79.06835938 C26.40199264 70.22299655 26.40199264 70.22299655 24.44555664 66.20507812 C21.72690425 60.93336126 18.44826714 56.23184409 14.96508789 51.44335938 C12.36633789 47.79273437 12.36633789 47.79273437 9.71508789 44.06835938 C9.38508789 50.33835938 9.05508789 56.60835937 8.71508789 63.06835938 C10.69508789 63.06835938 12.67508789 63.06835938 14.71508789 63.06835938 C15.70508789 63.56335938 15.70508789 63.56335938 16.71508789 64.06835938 C16.71508789 69.01835938 16.71508789 73.96835938 16.71508789 79.06835938 C5.16508789 79.06835938 -6.38491211 79.06835938 -18.28491211 79.06835938 C-18.28491211 64.06835938 -18.28491211 64.06835938 -17.28491211 63.06835938 C-14.97491211 63.06835938 -12.66491211 63.06835938 -10.28491211 63.06835938 C-10.61491211 48.21835937 -10.94491211 33.36835937 -11.28491211 18.06835938 C-13.59491211 17.40835937 -15.90491211 16.74835937 -18.28491211 16.06835938 C-18.31176623 13.75592145 -18.33124052 11.44339667 -18.34741211 9.13085938 C-18.35901367 7.84308594 -18.37061523 6.5553125 -18.38256836 5.22851562 C-18.15026932 -2.28868134 -5.81222454 0.10161866 0 0 Z M-14.28491211 6.06835938 C-14.28491211 8.04835938 -14.28491211 10.02835938 -14.28491211 12.06835938 C-10.37427987 13.53883274 -10.37427987 13.53883274 -6.28491211 14.06835938 C-6.28491211 31.22835937 -6.28491211 48.38835938 -6.28491211 66.06835938 C-8.59491211 66.72835937 -10.90491211 67.38835937 -13.28491211 68.06835938 C-13.28491211 70.04835937 -13.28491211 72.02835937 -13.28491211 74.06835938 C-5.03491211 74.06835938 3.21508789 74.06835938 11.71508789 74.06835938 C11.71508789 71.75835937 11.71508789 69.44835937 11.71508789 67.06835938 C8.25008789 66.57335937 8.25008789 66.57335937 4.71508789 66.06835938 C5.04508789 53.85835937 5.37508789 41.64835937 5.71508789 29.06835938 C7.15883789 31.41960938 8.60258789 33.77085938 10.09008789 36.19335938 C13.83570114 42.23138667 17.72006488 48.12200219 21.97363281 53.81542969 C24.23878576 56.87305725 26.23211995 59.92311662 28.03930664 63.27539062 C28.63388672 64.3184436 28.63388672 64.3184436 29.24047852 65.38256836 C30.40258789 67.44335938 30.40258789 67.44335938 31.34985352 69.44750977 C32.50645885 71.67411844 32.50645885 71.67411844 35.71508789 74.06835938 C40.66508789 74.06835938 45.61508789 74.06835938 50.71508789 74.06835938 C50.71508789 54.26835938 50.71508789 34.46835937 50.71508789 14.06835938 C54.18008789 13.57335937 54.18008789 13.57335937 57.71508789 13.06835938 C58.04508789 12.73835937 58.37508789 12.40835937 58.71508789 12.06835938 C58.71508789 10.08835937 58.71508789 8.10835937 58.71508789 6.06835938 C49.80508789 6.06835938 40.89508789 6.06835938 31.71508789 6.06835938 C31.71508789 8.04835938 31.71508789 10.02835938 31.71508789 12.06835938 C34.02508789 13.05835938 36.33508789 14.04835938 38.71508789 15.06835938 C38.71508789 26.28835937 38.71508789 37.50835937 38.71508789 49.06835938 C36.52883789 45.85085937 34.34258789 42.63335937 32.09008789 39.31835938 C26.71987249 31.43152529 21.30989962 23.57397476 15.84008789 15.75585938 C15.23986816 14.89702148 14.63964844 14.03818359 14.02124023 13.15332031 C11.56596014 9.45014797 11.56596014 9.45014797 8.71508789 6.06835938 C7.00736432 5.98122106 5.2961014 5.9613593 3.58618164 5.97070312 C2.55170898 5.97392578 1.51723633 5.97714844 0.45141602 5.98046875 C-0.63719727 5.98884766 -1.72581055 5.99722656 -2.84741211 6.00585938 C-3.93989258 6.01037109 -5.03237305 6.01488281 -6.15795898 6.01953125 C-8.86699706 6.03136111 -11.5759281 6.04784394 -14.28491211 6.06835938 Z " fill="#0B0B0A" transform="translate(99.284912109375,2.931640625)"/>
<path d="M0 0 C12.87 0 25.74 0 39 0 C39.495 6.93 39.495 6.93 40 14 C37.69 14.66 35.38 15.32 33 16 C32.92556343 20.87464091 32.87126333 25.74894728 32.83520508 30.62402344 C32.82016535 32.28065763 32.79972823 33.93725231 32.77368164 35.59375 C32.73708485 37.9818703 32.72022561 40.36946188 32.70703125 42.7578125 C32.69154739 43.49242706 32.67606354 44.22704163 32.66011047 44.98391724 C32.6585695 49.74619568 33.53478421 52.9332709 36 57 C37.56977574 58.56977574 39.14196387 58.20737081 41.3125 58.25 C44.33526605 58.21636031 45.78482394 58.11296743 48.5 56.6875 C51.76749021 53.01157352 51.16124139 48.53122454 51.16796875 43.90234375 C51.17129715 43.11227432 51.17462555 42.3222049 51.17805481 41.50819397 C51.18311351 39.83969708 51.18546346 38.1711901 51.18530273 36.50268555 C51.18749471 33.94367988 51.2056762 31.38510158 51.22460938 28.82617188 C51.22754236 27.20573064 51.22952779 25.58528736 51.23046875 23.96484375 C51.23765427 23.19712143 51.24483978 22.42939911 51.25224304 21.63841248 C51.39101036 17.35662459 51.39101036 17.35662459 49 14 C49.66 13.34 50.32 12.68 51 12 C53.625 12.375 53.625 12.375 56 13 C56.09938156 18.55007795 56.1717096 24.09963018 56.21972656 29.65039062 C56.23975767 31.53589916 56.26699073 33.42134623 56.30175781 35.30664062 C56.35065272 38.02749862 56.37305382 40.74753056 56.390625 43.46875 C56.41127014 44.30241089 56.43191528 45.13607178 56.45318604 45.99499512 C56.4553785 51.80210022 55.2445202 56.13957573 52 61 C48.4302394 64.26378112 44.88565152 64.51867501 40.21484375 64.35546875 C35.83346932 63.6522852 33.08273768 61.19474503 30.1875 58 C28.25914555 54.75224514 27.87435199 51.69958839 27.88647461 47.96582031 C27.88655014 47.18531311 27.88662567 46.40480591 27.88670349 45.60064697 C27.89186478 44.76821472 27.89702606 43.93578247 27.90234375 43.078125 C27.9037587 42.21813904 27.90517365 41.35815308 27.90663147 40.47210693 C27.91221903 37.73136891 27.92476925 34.99071324 27.9375 32.25 C27.94251661 30.3893241 27.94707923 28.52864691 27.95117188 26.66796875 C27.96218439 22.11194754 27.97944049 17.55598772 28 13 C30.64738916 11.5393715 31.89448334 11 35 11 C35 8.69 35 6.38 35 4 C25.1 4 15.2 4 5 4 C5 6.31 5 8.62 5 11 C5.969375 11.144375 6.93875 11.28875 7.9375 11.4375 C11 12 11 12 12 13 C12.1110576 15.99568808 12.16168595 18.97216135 12.17578125 21.96875 C12.1990016 23.83855265 12.2231198 25.70834432 12.24804688 27.578125 C12.28300611 30.52936905 12.31240938 33.48021582 12.32592773 36.43164062 C12.34152137 39.27783907 12.38182798 42.12286577 12.42578125 44.96875 C12.42387283 45.83786011 12.42196442 46.70697021 12.41999817 47.60241699 C12.56638484 55.03197651 14.6107142 60.92806112 19.1875 66.8125 C27.53641765 73.30610261 35.71847285 73.9858977 46.01611328 73.24951172 C50.39501105 72.69878153 54.12188927 71.00342235 58 69 C58.99 68.67 59.98 68.34 61 68 C62.11737753 66.16249037 62.11737753 66.16249037 63 64 C63.34667725 63.39285156 63.69335449 62.78570312 64.05053711 62.16015625 C68.54404461 53.09080777 67.56844221 42.86916116 67.5625 33 C67.56610574 30.16300348 67.57553779 27.32661434 67.60325623 24.48974609 C67.62008104 22.73364025 67.62289173 20.97733231 67.61024475 19.22119141 C67.63110352 16.83203125 67.63110352 16.83203125 68 13 C71 11 71 11 75 11 C75 8.69 75 6.38 75 4 C66.09 4 57.18 4 48 4 C48 6.97 48 9.94 48 13 C46.68 13.33 45.36 13.66 44 14 C44 9.38 44 4.76 44 0 C55.88 0 67.76 0 80 0 C80 4.62 80 9.24 80 14 C75 16 75 16 72 16 C72.01571045 17.12905762 72.0314209 18.25811523 72.04760742 19.42138672 C72.10233425 23.65194428 72.13650402 27.8824712 72.16479492 32.11328125 C72.17978489 33.93657715 72.20018384 35.7598376 72.22631836 37.58300781 C72.54287579 60.25100286 72.54287579 60.25100286 66.5625 68.75 C60.15684123 75.29558821 52.82677684 78.27787722 43.7644043 78.50415039 C34.13881219 78.48826195 23.84614995 78.07860291 16.21484375 71.44921875 C7.10158884 62.103779 6.50086245 50.80004934 6.6484375 38.4375 C6.68184202 36.70832459 6.71570158 34.97915791 6.75 33.25 C6.77010835 31.47397862 6.78835141 29.69793509 6.8046875 27.921875 C6.84831102 23.61402658 6.91709441 19.30726413 7 15 C5.5459375 15.0309375 5.5459375 15.0309375 4.0625 15.0625 C1 15 1 15 0 14 C0 9.38 0 4.76 0 0 Z " fill="#11100F" transform="translate(300,5)"/>
<path d="M0 0 C9.9 0 19.8 0 30 0 C30 2.31 30 4.62 30 7 C28.02 7.66 26.04 8.32 24 9 C23.67 25.83 23.34 42.66 23 60 C31.415 59.505 31.415 59.505 40 59 C40.474375 57.39125 40.94875 55.7825 41.4375 54.125 C42.875 49.25 42.875 49.25 44 47 C46.64 47 49.28 47 52 47 C52.02752977 48.97908485 52.04663002 50.95828731 52.0625 52.9375 C52.07410156 54.03964844 52.08570313 55.14179687 52.09765625 56.27734375 C51.98603044 60.53251953 51.47006721 64.76939507 51 69 C34.17 69 17.34 69 0 69 C0 66.69 0 64.38 0 62 C1.98 61.34 3.96 60.68 6 60 C6 43.17 6 26.34 6 9 C4.02 8.34 2.04 7.68 0 7 C0 4.69 0 2.38 0 0 Z " fill="#F8F7F1" transform="translate(387,9)"/>
<path d="M0 0 C20.46 0 40.92 0 62 0 C62 8.91 62 17.82 62 27 C59.586875 27.103125 57.17375 27.20625 54.6875 27.3125 C53.55380981 27.38078003 53.55380981 27.38078003 52.3972168 27.45043945 C50.57421875 27.48828125 50.57421875 27.48828125 47 27 C44.49223108 24.03255857 43.95098479 21.80393916 43 18 C39.37 17.67 35.74 17.34 32 17 C32.495 21.95 32.495 21.95 33 27 C39.6 27.33 46.2 27.66 53 28 C54.1384083 38.24567474 54.1384083 38.24567474 54.125 42 C54.12886719 43.11375 54.12886719 43.11375 54.1328125 44.25 C54 46 54 46 53 47 C51.43827255 47.08685603 49.87270656 47.10702219 48.30859375 47.09765625 C47.36435547 47.09443359 46.42011719 47.09121094 45.44726562 47.08789062 C44.45404297 47.07951172 43.46082031 47.07113281 42.4375 47.0625 C41.44041016 47.05798828 40.44332031 47.05347656 39.41601562 47.04882812 C36.94398513 47.03700023 34.47198528 47.01906415 32 47 C32 50.96 32 54.92 32 59 C36.29 59 40.58 59 45 59 C45.309375 57.370625 45.61875 55.74125 45.9375 54.0625 C46.875 49.125 46.875 49.125 48 48 C50.70108504 48.090916 53.36930311 48.23740766 56.0625 48.4375 C56.82111328 48.48970703 57.57972656 48.54191406 58.36132812 48.59570312 C60.24121722 48.72575835 62.12065685 48.86228038 64 49 C64.12161444 58.01298127 64.15699833 67.04397586 63 76 C62 77 62 77 59.52598572 77.12025452 C58.42678299 77.11803391 57.32758026 77.11581329 56.19506836 77.11352539 C54.33325172 77.11341209 54.33325172 77.11341209 52.43382263 77.11329651 C51.0691626 77.10818911 49.70450298 77.1029731 48.33984375 77.09765625 C46.95121817 77.095792 45.56259193 77.09436813 44.17396545 77.09336853 C40.51278885 77.08954387 36.8516517 77.07971403 33.19049072 77.06866455 C29.45707737 77.05844932 25.72365766 77.05387067 21.99023438 77.04882812 C14.66013823 77.03809171 7.33007464 77.02101591 0 77 C0.3125 73.625 0.3125 73.625 1 70 C2.485 69.01 2.485 69.01 4 68 C4 69.65 4 71.3 4 73 C30.73 72.505 30.73 72.505 58 72 C58.33 65.73 58.66 59.46 59 53 C56.36 53.33 53.72 53.66 51 54 C50.70996094 54.83144531 50.70996094 54.83144531 50.4140625 55.6796875 C50.15367187 56.40414062 49.89328125 57.12859375 49.625 57.875 C49.36976563 58.59429687 49.11453125 59.31359375 48.8515625 60.0546875 C48 62 48 62 46 64 C44.12060547 64.22705078 44.12060547 64.22705078 41.8671875 64.1953125 C41.14128418 64.19031738 40.41538086 64.18532227 39.66748047 64.18017578 C38.74596191 64.16196777 37.82444336 64.14375977 36.875 64.125 C33.94625 64.08375 31.0175 64.0425 28 64 C28 56.74 28 49.48 28 42 C34.93 42 41.86 42 49 42 C49 38.7 49 35.4 49 32 C42.07 32 35.14 32 28 32 C28 25.73 28 19.46 28 13 C33.94 13 39.88 13 46 13 C46.78125 15.31119792 47.5625 17.62239583 48.34375 19.93359375 C50.40240949 22.9937413 50.40240949 22.9937413 58 23 C58 16.73 58 10.46 58 4 C40.18 4 22.36 4 4 4 C4.33 7.3 4.66 10.6 5 14 C3.35 14 1.7 14 0 14 C0 9.38 0 4.76 0 0 Z " fill="#11110F" transform="translate(165,5)"/>
<path d="M0 0 C16.17 0 32.34 0 49 0 C49 6.93 49 13.86 49 21 C34.48 21.33 19.96 21.66 5 22 C4.67 47.41 4.34 72.82 4 99 C-3.26 99 -10.52 99 -18 99 C-17.67 98.01 -17.34 97.02 -17 96 C-9.08 95.505 -9.08 95.505 -1 95 C-0.67 63.65 -0.34 32.3 0 0 Z " fill="#FBFBFB" transform="translate(541,0)"/>
<path d="M0 0 C6.68940961 -0.09922675 13.3783863 -0.17163877 20.06835938 -0.21972656 C22.34187284 -0.23978317 24.6153351 -0.26703538 26.88867188 -0.30175781 C30.16549349 -0.35053712 33.44163025 -0.37302897 36.71875 -0.390625 C38.23172668 -0.42159271 38.23172668 -0.42159271 39.77526855 -0.45318604 C46.16574584 -0.45519638 50.59612614 0.56111572 56 4 C57.36125 4.86625 57.36125 4.86625 58.75 5.75 C62.93988258 9.93988258 65.20159427 14.5421752 65.5 20.5 C65.32757155 24.65983636 64.00870117 27.64183868 61.875 31.17578125 C60.71168001 33.26389319 60.71168001 33.26389319 61 37 C62.25331953 38.87666296 62.25331953 38.87666296 63.9375 40.5625 C68.39336167 45.29224443 68.34587903 49.61662961 68.27734375 55.921875 C67.74078952 61.8768712 65.44053944 65.49086344 61.375 69.75 C52.72384746 76.24934302 42.65521303 77.15828863 32.2265625 77.09765625 C31.3028183 77.0962413 30.3790741 77.09482635 29.42733765 77.09336853 C26.49319138 77.08779609 23.55912299 77.07524869 20.625 77.0625 C18.62890736 77.05748144 16.63281351 77.05291915 14.63671875 77.04882812 C9.75778275 77.03783569 4.87890455 77.0205901 0 77 C0 72.05 0 67.1 0 62 C3.465 61.505 3.465 61.505 7 61 C6.67 46.15 6.34 31.3 6 16 C3.03 15.505 3.03 15.505 0 15 C0 10.05 0 5.1 0 0 Z M4 4 C4 6.31 4 8.62 4 11 C5.98 11.66 7.96 12.32 10 13 C10 29.83 10 46.66 10 64 C8.02 64.66 6.04 65.32 4 66 C4 68.31 4 70.62 4 73 C9.31607806 73.12502535 14.63127217 73.21500002 19.94848633 73.2746582 C21.75137264 73.29956661 23.55416051 73.33350659 25.35668945 73.37719727 C43.06108459 73.91158861 43.06108459 73.91158861 58.36987305 65.86254883 C63.03219626 60.77885476 64.36637667 57.40448991 64.27734375 50.5390625 C63.86623556 46.77539598 62.5171364 44.78209813 60 42 C56.51565576 39.33114058 53.13410251 37.459095 49 36 C50.0725 35.46375 51.145 34.9275 52.25 34.375 C56.08217547 32.12855231 58.11905749 30.13807353 60 26 C60.75572782 20.77223335 60.60883445 16.45590846 58.5625 11.5625 C54.47175755 7.47175755 47.99756872 4.25579792 42.12068176 3.87974548 C41.41674789 3.88196609 40.71281403 3.88418671 39.98754883 3.88647461 C39.18694534 3.88655014 38.38634186 3.88662567 37.56147766 3.88670349 C36.27227669 3.89444542 36.27227669 3.89444542 34.95703125 3.90234375 C34.0734343 3.9037587 33.18983734 3.90517365 32.27946472 3.90663147 C29.45710872 3.91222931 26.63483203 3.92478139 23.8125 3.9375 C21.89908969 3.94251528 19.98567813 3.94707814 18.07226562 3.95117188 C13.38147986 3.96219803 8.69075337 3.97946117 4 4 Z " fill="#0C0C0B" transform="translate(232,5)"/>
<path d="M0 0 C0.33 0 0.66 0 1 0 C1 30.36 1 60.72 1 92 C-1.23265151 88.65102273 -2.89038804 85.15007889 -4.58984375 81.515625 C-4.93503555 80.78180603 -5.28022736 80.04798706 -5.63587952 79.29193115 C-6.36573478 77.73910198 -7.0944206 76.1857227 -7.82202148 74.63183594 C-8.92743599 72.27148927 -10.03663952 69.91295371 -11.14648438 67.5546875 C-11.85699709 66.0417729 -12.56729053 64.5287553 -13.27734375 63.015625 C-13.60556625 62.31745667 -13.93378876 61.61928833 -14.2719574 60.89996338 C-14.89463983 59.5688471 -15.51109281 58.23479483 -16.12057495 56.89758301 C-16.97287265 55.05853414 -17.88323514 53.24674281 -18.79516602 51.43652344 C-20.98459229 45.19166746 -19.00824294 40.40585133 -16.26953125 34.6484375 C-15.71330078 33.46636719 -15.15707031 32.28429688 -14.58398438 31.06640625 C-13.9937812 29.8357976 -13.40328554 28.60532918 -12.8125 27.375 C-12.24066259 26.16838251 -11.66969294 24.96135336 -11.09960938 23.75390625 C-9.96880506 21.36276677 -8.83488433 18.97309845 -7.69775391 16.58496094 C-5.08899428 11.07632903 -2.54199004 5.53974531 0 0 Z " fill="#FBFAF9" transform="translate(589,23)"/>
<path d="M0 0 C0.33 0 0.66 0 1 0 C1.33 12.54 1.66 25.08 2 38 C2.66 37.67 3.32 37.34 4 37 C4 46.24 4 55.48 4 65 C-14.21370347 67.10158117 -14.21370347 67.10158117 -18.97900391 63.50732422 C-22.60439773 59.33349791 -25.07021924 54.46229498 -27.59228516 49.57177734 C-29.95453493 45.25614447 -32.86027557 41.34763542 -35.75 37.375 C-38.34875 33.724375 -38.34875 33.724375 -41 30 C-41.33 36.27 -41.66 42.54 -42 49 C-40.02 49 -38.04 49 -36 49 C-35.01 49.495 -35.01 49.495 -34 50 C-34 54.95 -34 59.9 -34 65 C-45.55 65 -57.1 65 -69 65 C-69 64.01 -69 63.02 -69 62 C-68.01 62 -67.02 62 -66 62 C-65.67 59.36 -65.34 56.72 -65 54 C-64.67 54 -64.34 54 -64 54 C-64 55.98 -64 57.96 -64 60 C-55.75 60 -47.5 60 -39 60 C-39 57.69 -39 55.38 -39 53 C-42.465 52.505 -42.465 52.505 -46 52 C-46 39.46 -46 26.92 -46 14 C-43.79960307 16.20039693 -42.30282168 17.86546522 -40.64453125 20.38671875 C-39.97103638 21.4068103 -39.97103638 21.4068103 -39.28393555 22.44750977 C-38.79836182 23.18670654 -38.31278809 23.92590332 -37.8125 24.6875 C-37.29276611 25.45827881 -36.77303223 26.22905762 -36.23754883 27.02319336 C-33.0573032 31.76259295 -30.05984114 36.56411826 -27.1796875 41.4921875 C-26.18618286 43.12667847 -26.18618286 43.12667847 -25.17260742 44.79418945 C-23.87273918 46.93431196 -22.61303964 49.09947821 -21.3996582 51.28979492 C-19.37559442 54.78969692 -19.37559442 54.78969692 -15 59 C-10.05 59.33 -5.1 59.66 0 60 C0 40.2 0 20.4 0 0 Z " fill="#10100E" transform="translate(150,17)"/>
<path d="M0 0 C6.93 0 13.86 0 21 0 C21 0.33 21 0.66 21 1 C18.03 1 15.06 1 12 1 C12 1.66 12 2.32 12 3 C16.29 3.33 20.58 3.66 25 4 C25 4.33 25 4.66 25 5 C18.07 5 11.14 5 4 5 C4 8.96 4 12.92 4 17 C8.29 17 12.58 17 17 17 C17.309375 15.370625 17.61875 13.74125 17.9375 12.0625 C18.875 7.125 18.875 7.125 20 6 C22.70108504 6.090916 25.36930311 6.23740766 28.0625 6.4375 C29.20041992 6.51581055 29.20041992 6.51581055 30.36132812 6.59570312 C32.24121722 6.72575835 34.12065685 6.86228038 36 7 C36.12161444 16.01298127 36.15699833 25.04397586 35 34 C34 35 34 35 31.52598572 35.12025452 C30.42678299 35.11803391 29.32758026 35.11581329 28.19506836 35.11352539 C26.33325172 35.11341209 26.33325172 35.11341209 24.43382263 35.11329651 C23.0691626 35.10818911 21.70450298 35.1029731 20.33984375 35.09765625 C18.95121817 35.095792 17.56259193 35.09436813 16.17396545 35.09336853 C12.51278885 35.08954387 8.8516517 35.07971403 5.19049072 35.06866455 C1.45707737 35.05844932 -2.27634234 35.05387067 -6.00976562 35.04882812 C-13.33986177 35.03809171 -20.66992536 35.02101591 -28 35 C-27.6875 31.625 -27.6875 31.625 -27 28 C-26.01 27.34 -25.02 26.68 -24 26 C-24 27.65 -24 29.3 -24 31 C2.73 30.505 2.73 30.505 30 30 C30.33 23.73 30.66 17.46 31 11 C28.36 11.33 25.72 11.66 23 12 C22.80664062 12.55429687 22.61328125 13.10859375 22.4140625 13.6796875 C22.15367187 14.40414062 21.89328125 15.12859375 21.625 15.875 C21.24214844 16.95394531 21.24214844 16.95394531 20.8515625 18.0546875 C20 20 20 20 18 22 C16.12060547 22.22705078 16.12060547 22.22705078 13.8671875 22.1953125 C12.77833252 22.18781982 12.77833252 22.18781982 11.66748047 22.18017578 C10.74596191 22.16196777 9.82444336 22.14375977 8.875 22.125 C5.94625 22.08375 3.0175 22.0425 0 22 C0 14.74 0 7.48 0 0 Z " fill="#090908" transform="translate(193,47)"/>
<path d="M0 0 C1.32114304 0.0001133 1.32114304 0.0001133 2.66897583 0.00022888 C3.62109955 0.00539017 4.57322327 0.01055145 5.55419922 0.01586914 C7.01489334 0.01799156 7.01489334 0.01799156 8.50509644 0.02015686 C11.62305745 0.02576566 14.74094732 0.03831966 17.85888672 0.05102539 C19.96956277 0.05603926 22.08023994 0.06060236 24.19091797 0.06469727 C29.37193193 0.07573794 34.55290424 0.09248466 39.73388672 0.11352539 C40.22888672 1.10352539 40.22888672 1.10352539 40.73388672 2.11352539 C40.07388672 2.11352539 39.41388672 2.11352539 38.73388672 2.11352539 C38.73388672 2.77352539 38.73388672 3.43352539 38.73388672 4.11352539 C48.63388672 4.11352539 58.53388672 4.11352539 68.73388672 4.11352539 C68.73388672 4.44352539 68.73388672 4.77352539 68.73388672 5.11352539 C49.92388672 5.11352539 31.11388672 5.11352539 11.73388672 5.11352539 C11.73388672 9.73352539 11.73388672 14.35352539 11.73388672 19.11352539 C13.05388672 18.78352539 14.37388672 18.45352539 15.73388672 18.11352539 C16.06388672 17.12352539 16.39388672 16.13352539 16.73388672 15.11352539 C20.19888672 16.59852539 20.19888672 16.59852539 23.73388672 18.11352539 C23.73388672 34.94352539 23.73388672 51.77352539 23.73388672 69.11352539 C20.26888672 70.10352539 20.26888672 70.10352539 16.73388672 71.11352539 C16.73388672 73.09352539 16.73388672 75.07352539 16.73388672 77.11352539 C34.22388672 77.11352539 51.71388672 77.11352539 69.73388672 77.11352539 C69.73388672 77.44352539 69.73388672 77.77352539 69.73388672 78.11352539 C51.91388672 78.11352539 34.09388672 78.11352539 15.73388672 78.11352539 C15.40388672 76.79352539 15.07388672 75.47352539 14.73388672 74.11352539 C13.74388672 75.43352539 12.75388672 76.75352539 11.73388672 78.11352539 C11.73388672 74.48352539 11.73388672 70.85352539 11.73388672 67.11352539 C14.04388672 67.11352539 16.35388672 67.11352539 18.73388672 67.11352539 C18.73388672 51.60352539 18.73388672 36.09352539 18.73388672 20.11352539 C15.76388672 20.11352539 12.79388672 20.11352539 9.73388672 20.11352539 C9.40388672 14.83352539 9.07388672 9.55352539 8.73388672 4.11352539 C1.80388672 4.11352539 -5.12611328 4.11352539 -12.26611328 4.11352539 C-11.60611328 3.78352539 -10.94611328 3.45352539 -10.26611328 3.11352539 C-10.26611328 2.45352539 -10.26611328 1.79352539 -10.26611328 1.11352539 C-8.94611328 1.11352539 -7.62611328 1.11352539 -6.26611328 1.11352539 C-3.93601349 -0.05152451 -2.59364251 -0.00741041 0 0 Z " fill="#502E16" transform="translate(153.26611328125,-0.113525390625)"/>
<path d="M0 0 C0.33 0 0.66 0 1 0 C1 31.02 1 62.04 1 94 C52.15 94 103.3 94 156 94 C156 93.01 156 92.02 156 91 C156.66 90.38125 157.32 89.7625 158 89.125 C160.57113725 86.87952574 160.57113725 86.87952574 160 82 C167.92 81.505 167.92 81.505 176 81 C176.33 77.37 176.66 73.74 177 70 C177.99 69.67 178.98 69.34 180 69 C180 73.29 180 77.58 180 82 C182.97 82 185.94 82 189 82 C188.67 82.99 188.34 83.98 188 85 C186.68 85 185.36 85 184 85 C184.185625 85.5775 184.37125 86.155 184.5625 86.75 C185 89 185 89 184 93 C190.93 93.495 190.93 93.495 198 94 C198 94.33 198 94.66 198 95 C132.66 95 67.32 95 0 95 C0 63.65 0 32.3 0 0 Z " fill="#573620" transform="translate(51,0)"/>
<path d="M0 0 C7.71345739 -0.46280744 13.48511786 -0.37362717 20 4 C21.36125 4.86625 21.36125 4.86625 22.75 5.75 C26.93988258 9.93988258 29.20159427 14.5421752 29.5 20.5 C29.32757155 24.65983636 28.00870117 27.64183868 25.875 31.17578125 C24.71168001 33.26389319 24.71168001 33.26389319 25 37 C26.25331953 38.87666296 26.25331953 38.87666296 27.9375 40.5625 C32.39336167 45.29224443 32.34587903 49.61662961 32.27734375 55.921875 C31.74078952 61.8768712 29.44053944 65.49086344 25.375 69.75 C20.84668445 73.13759484 14.9135433 76.41332603 9.19140625 75.6015625 C8.10666016 75.30378906 8.10666016 75.30378906 7 75 C9.21566797 71.51411196 10.90236569 70.40678919 14.8125 69.1875 C20.67688008 67.03551257 24.21448758 63.57102485 27 58 C27.54644038 53.01933027 27.54204675 49.1041693 25.3125 44.5625 C21.44286211 40.27452288 17.46813254 38.65315635 12 37 C13 35 13 35 16.375 33.1875 C19.83330578 31.22755668 21.60137237 29.86679405 23 26 C23.51715473 21.17079454 23.54613988 16.71123829 22.0625 12.0625 C15.98937067 5.98937067 7.35958512 4.84688509 -0.82421875 4.68359375 C-1.68561966 4.66281265 -2.54702057 4.64203156 -3.43452454 4.62062073 C-6.18543544 4.55525091 -8.93644156 4.49629868 -11.6875 4.4375 C-13.55274421 4.39430283 -15.4179788 4.35068815 -17.28320312 4.30664062 C-21.85537124 4.19958237 -26.4276351 4.09827946 -31 4 C-31 3.67 -31 3.34 -31 3 C-15.655 2.505 -15.655 2.505 0 2 C0 1.34 0 0.68 0 0 Z " fill="#0F0F0E" transform="translate(268,5)"/>
<path d="M0 0 C13.86 0 27.72 0 42 0 C40.02 2.31 38.04 4.62 36 7 C35.39736328 7.79728516 34.79472656 8.59457031 34.17382812 9.41601562 C31.30905269 12.88712879 29.23555465 14.7602876 24.73828125 15.6328125 C20.96069052 15.78666936 17.2750976 15.69949703 13.5 15.5 C12.200625 15.46390625 10.90125 15.4278125 9.5625 15.390625 C6.37372056 15.29683737 3.18647004 15.15335952 0 15 C0 10.05 0 5.1 0 0 Z " fill="#492813" transform="translate(474,100)"/>
<path d="M0 0 C13.86 0 27.72 0 42 0 C42 4.95 42 9.9 42 15 C15.55539136 16.86468394 15.55539136 16.86468394 8.95605469 11.26098633 C6.75031406 8.97203114 4.82913591 6.59853435 3 4 C2.01 2.68 1.02 1.36 0 0 Z " fill="#4A2812" transform="translate(74,100)"/>
<path d="M0 0 C8.25 0 16.5 0 25 0 C25 31.35 25 62.7 25 95 C24.67 95 24.34 95 24 95 C23.67 67.28 23.34 39.56 23 11 C22.34 11 21.68 11 21 11 C20.67 11.99 20.34 12.98 20 14 C20.66 14 21.32 14 22 14 C21.67 14.99 21.34 15.98 21 17 C18.9375 17.6875 18.9375 17.6875 17 18 C17.3403125 18.86625 17.3403125 18.86625 17.6875 19.75 C18 22 18 22 16.75 24.25 C16.1725 24.8275 15.595 25.405 15 26 C14.01 26 13.02 26 12 26 C11.67 23.36 11.34 20.72 11 18 C11.66 18 12.32 18 13 18 C12.814375 17.38125 12.62875 16.7625 12.4375 16.125 C12 14 12 14 13 12 C11.68 11.67 10.36 11.34 9 11 C9 10.34 9 9.68 9 9 C4.08417923 7.48046291 4.08417923 7.48046291 -1 7 C-1.625 5.1875 -1.625 5.1875 -2 3 C-1.34 2.01 -0.68 1.02 0 0 Z " fill="#522F18" transform="translate(516,0)"/>
<path d="M0 0 C12.46024735 -0.41077739 12.46024735 -0.41077739 17 3 C19.8199641 7.22994616 19.79231188 11.03220448 19 16 C16.47323961 19.34625024 14.96066458 20.67977847 11 22 C7.37 22 3.74 22 0 22 C0 14.74 0 7.48 0 0 Z " fill="#141312" transform="translate(259,47)"/>
<path d="M0 0 C10.98214286 -0.66964286 10.98214286 -0.66964286 14.6875 1.9375 C17.40018826 5.52997904 17.76185534 7.44716984 17.46875 11.84375 C16.77989736 15.01247216 15.33200445 16.80517228 13 19 C9.14854957 20.92572521 4.19956748 20.04883218 0 20 C0 13.4 0 6.8 0 0 Z " fill="#181613" transform="translate(259,18)"/>
<path d="M0 0 C0.33 0 0.66 0 1 0 C1 25.74 1 51.48 1 78 C-6.26 78.33 -13.52 78.66 -21 79 C-26.11132541 83.58256761 -29.24543439 86.66909006 -33 92 C-36.21451269 93.60725635 -39.43612536 93.05748185 -43 93 C-38.83540492 88.02280101 -34.64070704 83.64070704 -30 79 C-50.295 78.505 -50.295 78.505 -71 78 C-71 77.67 -71 77.34 -71 77 C-69.19813232 76.970271 -69.19813232 76.970271 -67.35986328 76.93994141 C-62.91303146 76.8640038 -58.46653195 76.77526868 -54.02001953 76.68261719 C-52.09365386 76.64427832 -50.1672154 76.60943418 -48.24072266 76.578125 C-45.47532082 76.53258055 -42.71042231 76.47456963 -39.9453125 76.4140625 C-39.0806839 76.40251129 -38.2160553 76.39096008 -37.32522583 76.37905884 C-32.68217152 76.47337842 -32.68217152 76.47337842 -29 74 C-26.31160615 73.73008094 -23.70858064 73.91262643 -21 74 C-21 74.66 -21 75.32 -21 76 C-14.07 76.33 -7.14 76.66 0 77 C0 51.59 0 26.18 0 0 Z " fill="#E9E5E2" transform="translate(545,22)"/>
<path d="M0 0 C3 4 3 4 3 14 C-17.46 14 -37.92 14 -59 14 C-58.67 11.69 -58.34 9.38 -58 7 C-57.01 6.34 -56.02 5.68 -55 5 C-55 6.65 -55 8.3 -55 10 C-28.27 9.505 -28.27 9.505 -1 9 C-0.67 6.03 -0.34 3.06 0 0 Z " fill="#0F0E0B" transform="translate(224,68)"/>
<path d="M0 0 C9.9 0 19.8 0 30 0 C30 4.62 30 9.24 30 14 C27.69 14.66 25.38 15.32 23 16 C22.98541748 16.98919434 22.97083496 17.97838867 22.95581055 18.99755859 C22.8979103 22.66182919 22.82067848 26.32547985 22.73754883 29.98925781 C22.7042602 31.57606965 22.67624053 33.16300103 22.65356445 34.75 C22.62008922 37.02916484 22.5677814 39.30723041 22.51171875 41.5859375 C22.50213387 42.65320572 22.50213387 42.65320572 22.49235535 43.74203491 C22.43237305 45.74365234 22.43237305 45.74365234 22 49 C21.01 49.66 20.02 50.32 19 51 C19 38.13 19 25.26 19 12 C20.98 11.34 22.96 10.68 25 10 C25 8.02 25 6.04 25 4 C16.75 3.67 8.5 3.34 0 3 C0 2.01 0 1.02 0 0 Z " fill="#0A0B0B" transform="translate(132,5)"/>
<path d="M0 0 C0 4.95 0 9.9 0 15 C-11.55 15 -23.1 15 -35 15 C-35 14.01 -35 13.02 -35 12 C-34.01 12 -33.02 12 -32 12 C-31.67 9.36 -31.34 6.72 -31 4 C-30.67 4 -30.34 4 -30 4 C-30 5.98 -30 7.96 -30 10 C-21.75 10 -13.5 10 -5 10 C-5 7.69 -5 5.38 -5 3 C-7.31 2.67 -9.62 2.34 -12 2 C-11.67 1.01 -11.34 0.02 -11 -1 C-7.47968852 -2.76015574 -3.69802625 -0.89809209 0 0 Z " fill="#21201D" transform="translate(116,67)"/>
<path d="M0 0 C0.33 15.51 0.66 31.02 1 47 C-0.485 47.495 -0.485 47.495 -2 48 C-4.57282621 42.0412514 -5.41948006 37.36026066 -5.29296875 30.90625 C-5.28872391 30.07411987 -5.28447906 29.24198975 -5.28010559 28.38464355 C-5.26346307 25.75608407 -5.22583976 23.12832333 -5.1875 20.5 C-5.17243444 18.70574033 -5.15874933 16.9114685 -5.14648438 15.1171875 C-5.11360714 10.74448917 -5.06192722 6.37237947 -5 2 C-6.65 2 -8.3 2 -10 2 C-10 1.67 -10 1.34 -10 1 C-3.375 0 -3.375 0 0 0 Z " fill="#201E1C" transform="translate(312,18)"/>
<path d="M0 0 C0.33 0 0.66 0 1 0 C1.144375 0.763125 1.28875 1.52625 1.4375 2.3125 C1.9632594 5.08172908 1.9632594 5.08172908 3 8 C-1.75 12 -1.75 12 -4 12 C-4 25.86 -4 39.72 -4 54 C-4.99 53.67 -5.98 53.34 -7 53 C-7 54.98 -7 56.96 -7 59 C-2.38 59 2.24 59 7 59 C7 59.33 7 59.66 7 60 C2.05 60 -2.9 60 -8 60 C-8.02464113 52.75512951 -8.0428318 45.51028318 -8.05493164 38.26538086 C-8.05997356 35.79857967 -8.06680691 33.33178148 -8.07543945 30.86499023 C-8.08751125 27.32795471 -8.09322956 23.79095855 -8.09765625 20.25390625 C-8.10281754 19.14350479 -8.10797882 18.03310333 -8.11329651 16.88905334 C-8.11337204 15.86807053 -8.11344757 14.84708771 -8.11352539 13.79516602 C-8.115746 12.89137711 -8.11796661 11.9875882 -8.12025452 11.05641174 C-8 9 -8 9 -7 8 C-4.66702567 7.95907063 -2.33294775 7.95758277 0 8 C0 5.36 0 2.72 0 0 Z " fill="#1C1A17" transform="translate(418,9)"/>
<path d="M0 0 C18.81 0 37.62 0 57 0 C56.67 0.99 56.34 1.98 56 3 C30.755 3.495 30.755 3.495 5 4 C5 7.3 5 10.6 5 14 C3.35 14 1.7 14 0 14 C0 9.38 0 4.76 0 0 Z " fill="#040606" transform="translate(165,5)"/>
<path d="M0 0 C0.66 0.33 1.32 0.66 2 1 C2.33 3.31 2.66 5.62 3 8 C17.19 8.33 31.38 8.66 46 9 C45.67 10.32 45.34 11.64 45 13 C29.82 13 14.64 13 -1 13 C-1 1 -1 1 0 0 Z " fill="#0E0D0B" transform="translate(384,69)"/>
<path d="M0 0 C1.32 0 2.64 0 4 0 C4 16.83 4 33.66 4 51 C2.68 50.67 1.36 50.34 0 50 C0 33.5 0 17 0 0 Z " fill="#373632" transform="translate(173,18)"/>
<path d="M0 0 C5.45659719 5.45659719 6.48942099 16.57298654 8 24 C3.05 24 -1.9 24 -7 24 C-5.87456272 16.12193903 -5.87456272 16.12193903 -4.84375 13.10546875 C-4.62589844 12.46029297 -4.40804688 11.81511719 -4.18359375 11.15039062 C-3.95800781 10.50263672 -3.73242188 9.85488281 -3.5 9.1875 C-3.27441406 8.52041016 -3.04882812 7.85332031 -2.81640625 7.16601562 C-1.97989631 4.71340808 -1.16030928 2.32061857 0 0 Z " fill="#1B1A18" transform="translate(477,24)"/>
<path d="M0 0 C2.625 0.375 2.625 0.375 5 1 C5.07444911 6.56841139 5.12874318 12.13652964 5.16479492 17.70532227 C5.17983246 19.59762625 5.20026785 21.48989566 5.22631836 23.38208008 C5.26292399 26.11027586 5.2797769 28.83800871 5.29296875 31.56640625 C5.30845261 32.40522842 5.32393646 33.2440506 5.33988953 34.10829163 C5.34141607 39.49988574 4.45107706 43.18548531 2 48 C0.68 47.34 -0.64 46.68 -2 46 C-1.67547852 45.18305664 -1.35095703 44.36611328 -1.01660156 43.52441406 C0.1469932 39.49039535 0.2880621 35.76715905 0.265625 31.609375 C0.26753845 30.82355042 0.2694519 30.03772583 0.27142334 29.22808838 C0.27277772 27.57751136 0.26913375 25.92692343 0.26074219 24.27636719 C0.24997406 21.74390025 0.26069193 19.2121334 0.2734375 16.6796875 C0.2721169 15.0729151 0.26955656 13.46614313 0.265625 11.859375 C0.26967346 11.10106384 0.27372192 10.34275269 0.27789307 9.5614624 C0.38670113 5.32034629 0.38670113 5.32034629 -2 2 C-1.34 1.34 -0.68 0.68 0 0 Z " fill="#0F0E0D" transform="translate(351,17)"/>
<path d="M0 0 C2.31 0.66 4.62 1.32 7 2 C6.34 2.66 5.68 3.32 5 4 C4.66947545 6.18124591 4.66947545 6.18124591 4.68115234 8.72509766 C4.66128265 9.70596344 4.64141296 10.68682922 4.62094116 11.69741821 C4.60361435 13.28965714 4.60361435 13.28965714 4.5859375 14.9140625 C4.56657135 15.99883881 4.5472052 17.08361511 4.5272522 18.20126343 C4.46733574 21.67576159 4.42102261 25.15029267 4.375 28.625 C4.33683135 30.97657718 4.29778029 33.32814021 4.2578125 35.6796875 C4.16162441 41.4529997 4.07661247 47.22639666 4 53 C4.66 53 5.32 53 6 53 C6 53.66 6 54.32 6 55 C3.525 55.495 3.525 55.495 1 56 C1 57.98 1 59.96 1 62 C18.49 62 35.98 62 54 62 C54 62.33 54 62.66 54 63 C36.18 63 18.36 63 0 63 C-0.33 61.68 -0.66 60.36 -1 59 C-1.99 60.32 -2.98 61.64 -4 63 C-4 59.37 -4 55.74 -4 52 C-1.69 52 0.62 52 3 52 C3 36.49 3 20.98 3 5 C0.69 5 -1.62 5 -4 5 C-2.68 4.34 -1.36 3.68 0 3 C0 2.01 0 1.02 0 0 Z " fill="#45423D" transform="translate(169,15)"/>
<path d="M0 0 C0.33 0 0.66 0 1 0 C1.33 12.54 1.66 25.08 2 38 C2.99 37.505 2.99 37.505 4 37 C4 46.24 4 55.48 4 65 C-2.93 65 -9.86 65 -17 65 C-17 64.67 -17 64.34 -17 64 C-12.05 63.67 -7.1 63.34 -2 63 C-2 62.34 -2 61.68 -2 61 C-5.96 61 -9.92 61 -14 61 C-14 60.67 -14 60.34 -14 60 C-9.38 60 -4.76 60 0 60 C0 40.2 0 20.4 0 0 Z " fill="#1C1B18" transform="translate(150,17)"/>
<path d="M0 0 C6.93 0 13.86 0 21 0 C21 0.33 21 0.66 21 1 C18.03 1 15.06 1 12 1 C12 1.66 12 2.32 12 3 C16.29 3.33 20.58 3.66 25 4 C25 4.33 25 4.66 25 5 C18.07 5 11.14 5 4 5 C4 8.96 4 12.92 4 17 C7.96 17 11.92 17 16 17 C16 17.33 16 17.66 16 18 C15.36191406 18.06058594 14.72382813 18.12117188 14.06640625 18.18359375 C12.82697266 18.30927734 12.82697266 18.30927734 11.5625 18.4375 C10.32693359 18.55931641 10.32693359 18.55931641 9.06640625 18.68359375 C7.01337975 18.78930815 7.01337975 18.78930815 6 20 C9.96 20.33 13.92 20.66 18 21 C18 21.33 18 21.66 18 22 C12.06 22 6.12 22 0 22 C0 14.74 0 7.48 0 0 Z " fill="#201E1A" transform="translate(193,47)"/>
<path d="M0 0 C7.26 0 14.52 0 22 0 C25.375 10.125 25.375 10.125 25 14 C22.69 14.66 20.38 15.32 18 16 C17.67 15.34 17.34 14.68 17 14 C17.33 13.34 17.66 12.68 18 12 C17.01 11.67 16.02 11.34 15 11 C16.65 11 18.3 11 20 11 C19.67 9.02 19.34 7.04 19 5 C17.79601562 5.0721875 16.59203125 5.144375 15.3515625 5.21875 C13.77604351 5.31253089 12.20052257 5.4062792 10.625 5.5 C9.8309375 5.54769531 9.036875 5.59539063 8.21875 5.64453125 C2.2265625 6 2.2265625 6 0 6 C-0.66 7.32 -1.32 8.64 -2 10 C-2.33 9.34 -2.66 8.68 -3 8 C-2.01 5.36 -1.02 2.72 0 0 Z " fill="#1E1D1A" transform="translate(466,56)"/>
<path d="M0 0 C1.43352212 0.00015908 2.86704998 0.00585132 4.30053711 0.01586914 C5.43041298 0.01799156 5.43041298 0.01799156 6.58311462 0.02015686 C8.99807646 0.02577163 11.41294687 0.03832656 13.82788086 0.05102539 C15.46134307 0.05603849 17.09480672 0.06060173 18.72827148 0.06469727 C22.74067671 0.07574585 26.75301326 0.09302033 30.76538086 0.11352539 C30.76538086 0.44352539 30.76538086 0.77352539 30.76538086 1.11352539 C20.86538086 1.11352539 10.96538086 1.11352539 0.76538086 1.11352539 C0.76538086 2.10352539 0.76538086 3.09352539 0.76538086 4.11352539 C9.01538086 4.11352539 17.26538086 4.11352539 25.76538086 4.11352539 C25.76538086 4.44352539 25.76538086 4.77352539 25.76538086 5.11352539 C17.18538086 5.11352539 8.60538086 5.11352539 -0.23461914 5.11352539 C0.09538086 7.09352539 0.42538086 9.07352539 0.76538086 11.11352539 C2.41538086 11.44352539 4.06538086 11.77352539 5.76538086 12.11352539 C5.10538086 12.77352539 4.44538086 13.43352539 3.76538086 14.11352539 C3.43538086 14.77352539 3.10538086 15.43352539 2.76538086 16.11352539 C0.45538086 16.11352539 -1.85461914 16.11352539 -4.23461914 16.11352539 C-4.26147009 13.63428738 -4.28138462 11.15533699 -4.29711914 8.67602539 C-4.3096875 7.61544922 -4.3096875 7.61544922 -4.32250977 6.53344727 C-4.33115502 4.7265898 -4.28681926 2.91964936 -4.23461914 1.11352539 C-3.23461914 0.11352539 -3.23461914 0.11352539 0 0 Z " fill="#201B17" transform="translate(131.234619140625,3.886474609375)"/>
<path d="M0 0 C3.49186021 -0.20145347 6.19917389 -0.34907805 9.4375 1.0625 C11 3 11 3 11.5 6.4375 C11 10 11 10 9.375 12.4375 C6.37616451 14.41041808 4.52371092 14.39152344 1 14 C0 13 0 13 -0.09765625 10.05859375 C-0.08605469 8.86363281 -0.07445312 7.66867188 -0.0625 6.4375 C-0.05347656 5.23996094 -0.04445313 4.04242188 -0.03515625 2.80859375 C-0.02355469 1.88175781 -0.01195312 0.95492187 0 0 Z " fill="#482A17" transform="translate(263,51)"/>
<path d="M0 0 C14.16234888 -0.84974093 14.16234888 -0.84974093 20 4 C21.35594221 6.30602417 22.15008894 8.45026681 23 11 C22.34 11.33 21.68 11.66 21 12 C20.525625 11.401875 20.05125 10.80375 19.5625 10.1875 C13.62962686 5.1228522 6.12044227 4.5479371 -1.41015625 4.48828125 C-2.26306747 4.47033005 -3.1159787 4.45237885 -3.99473572 4.43388367 C-6.68394211 4.38026833 -9.37297616 4.34604364 -12.0625 4.3125 C-13.90041437 4.2792837 -15.73830613 4.24479014 -17.57617188 4.20898438 C-22.0506558 4.12457084 -26.52509297 4.05752952 -31 4 C-31 3.67 -31 3.34 -31 3 C-15.655 2.505 -15.655 2.505 0 2 C0 1.34 0 0.68 0 0 Z " fill="#191A18" transform="translate(268,5)"/>
<path d="M0 0 C9.9 0 19.8 0 30 0 C29.67 0.99 29.34 1.98 29 3 C21.08 3.33 13.16 3.66 5 4 C4.67 6.97 4.34 9.94 4 13 C2.68 13.33 1.36 13.66 0 14 C0 9.38 0 4.76 0 0 Z " fill="#0A0A09" transform="translate(344,5)"/>
<path d="M0 0 C0.33 0 0.66 0 1 0 C1.07589768 6.2295758 1.12853504 12.45903295 1.16479492 18.68896484 C1.17990645 20.80945288 1.2003964 22.92990954 1.22631836 25.05029297 C1.26259786 28.09350311 1.27970242 31.13630103 1.29296875 34.1796875 C1.30845261 35.13181122 1.32393646 36.08393494 1.33988953 37.06491089 C1.34011612 37.94567291 1.34034271 38.82643494 1.34057617 39.73388672 C1.34723801 40.51110077 1.35389984 41.28831482 1.36076355 42.08908081 C1.24171158 42.71968414 1.12265961 43.35028748 1 44 C0.01 44.66 -0.98 45.32 -2 46 C-2.0493933 39.93108308 -2.08571643 33.86228287 -2.10986328 27.79321289 C-2.11992835 25.728088 -2.13358154 23.66297737 -2.15087891 21.59790039 C-2.17510493 18.63163736 -2.18647797 15.66556256 -2.1953125 12.69921875 C-2.20563507 11.7741301 -2.21595764 10.84904144 -2.22659302 9.8959198 C-2.22674408 9.03525406 -2.22689514 8.17458832 -2.22705078 7.2878418 C-2.231492 6.53061325 -2.23593323 5.7733847 -2.24050903 4.99320984 C-2 3 -2 3 0 0 Z " fill="#0A0A08" transform="translate(392,18)"/>
<path d="M0 0 C2.95064148 -0.2208564 5.68368231 -0.28060989 8.625 -0.1875 C9.42679688 -0.17396484 10.22859375 -0.16042969 11.0546875 -0.14648438 C13.03674378 -0.11109051 15.01845551 -0.05728234 17 0 C17.33 0.66 17.66 1.32 18 2 C17.34 2 16.68 2 16 2 C16 2.66 16 3.32 16 4 C25.9 4 35.8 4 46 4 C46 4.33 46 4.66 46 5 C27.19 5 8.38 5 -11 5 C-11 4.67 -11 4.34 -11 4 C-10.37351563 3.96261719 -9.74703125 3.92523438 -9.1015625 3.88671875 C-8.28429687 3.82097656 -7.46703125 3.75523438 -6.625 3.6875 C-5.81289062 3.62949219 -5.00078125 3.57148437 -4.1640625 3.51171875 C-1.62078662 3.17009472 -1.62078662 3.17009472 0 0 Z " fill="#3F2513" transform="translate(176,0)"/>
<path d="M0 0 C0.33 0 0.66 0 1 0 C1 4.95 1 9.9 1 15 C-12.2 15 -25.4 15 -39 15 C-39 10.38 -39 5.76 -39 1 C-37.68 1 -36.36 1 -35 1 C-35 4.3 -35 7.6 -35 11 C-33.35 11 -31.7 11 -30 11 C-30.33 11.66 -30.66 12.32 -31 13 C-20.77 13.33 -10.54 13.66 0 14 C0 9.38 0 4.76 0 0 Z " fill="#15110D" transform="translate(519,67)"/>
<path d="M0 0 C0.79075928 0.00523682 1.58151855 0.01047363 2.39624023 0.01586914 C3.67724609 0.02070312 3.67724609 0.02070312 4.98413086 0.02563477 C5.88196289 0.03401367 6.77979492 0.04239258 7.70483398 0.05102539 C8.6065332 0.05553711 9.50823242 0.06004883 10.43725586 0.06469727 C12.67234712 0.07652315 14.90730835 0.09300319 17.14233398 0.11352539 C16.81233398 1.10352539 16.48233398 2.09352539 16.14233398 3.11352539 C11.19233398 3.11352539 6.24233398 3.11352539 1.14233398 3.11352539 C0.66795898 4.72227539 0.19358398 6.33102539 -0.29516602 7.98852539 C-1.73266602 12.86352539 -1.73266602 12.86352539 -2.85766602 15.11352539 C-3.84766602 15.44352539 -4.83766602 15.77352539 -5.85766602 16.11352539 C-6.51766602 16.77352539 -7.17766602 17.43352539 -7.85766602 18.11352539 C-7.37095678 13.61146499 -5.60158464 0.34232315 0 0 Z " fill="#080809" transform="translate(471.857666015625,4.886474609375)"/>
<path d="M0 0 C2.87506421 -0.02712325 5.74986908 -0.04689851 8.625 -0.0625 C9.83736328 -0.07506836 9.83736328 -0.07506836 11.07421875 -0.08789062 C15.50341918 -0.1058955 19.63883424 0.10377338 24 1 C24 2.32 24 3.64 24 5 C13.11 5 2.22 5 -9 5 C-9 4.67 -9 4.34 -9 4 C-5.04 4 -1.08 4 3 4 C3 3.34 3 2.68 3 2 C2.01 1.67 1.02 1.34 0 1 C0 0.67 0 0.34 0 0 Z " fill="#4E2D19" transform="translate(241,0)"/>
<path d="M0 0 C4.77091149 0.76834904 7.15203224 1.67566758 10.08984375 5.58984375 C11.05901328 7.02579697 12.0079097 8.47561317 12.9375 9.9375 C13.43056641 10.66646484 13.92363281 11.39542969 14.43164062 12.14648438 C18 17.54604066 18 17.54604066 18 21 C17.34 21.99 16.68 22.98 16 24 C13.88847397 21.1303403 11.78714286 18.25336269 9.6875 15.375 C9.09259766 14.56675781 8.49769531 13.75851563 7.88476562 12.92578125 C4.84250533 8.74479782 2.11695427 4.72302432 0 0 Z " fill="#141312" transform="translate(109,10)"/>
<path d="M0 0 C0.33 0 0.66 0 1 0 C1 16.83 1 33.66 1 51 C-1.31 51.66 -3.62 52.32 -6 53 C-6 54.98 -6 56.96 -6 59 C-6.33 59 -6.66 59 -7 59 C-7.33 56.69 -7.66 54.38 -8 52 C-8.66 52 -9.32 52 -10 52 C-10 51.01 -10 50.02 -10 49 C-9.071875 48.9175 -8.14375 48.835 -7.1875 48.75 C-3.98065785 48.30345427 -3.98065785 48.30345427 -2.32780457 46.23394775 C-0.84768017 43.74373145 -0.60886625 42.37709113 -0.56762695 39.50683594 C-0.54783279 38.62622498 -0.52803864 37.74561401 -0.50764465 36.83831787 C-0.50125473 35.89651672 -0.49486481 34.95471558 -0.48828125 33.984375 C-0.47033005 33.01340881 -0.45237885 32.04244263 -0.43388367 31.04205322 C-0.37975727 27.94474615 -0.34587717 24.8475934 -0.3125 21.75 C-0.27932902 19.64841602 -0.24483957 17.5468524 -0.20898438 15.4453125 C-0.12402927 10.29698629 -0.05722892 5.14870605 0 0 Z " fill="#353431" transform="translate(393,18)"/>
<path d="M0 0 C0.33 0 0.66 0 1 0 C1 3.63 1 7.26 1 11 C1.99 10.67 2.98 10.34 4 10 C4.66 10.66 5.32 11.32 6 12 C5.54625 12.53625 5.0925 13.0725 4.625 13.625 C2.78311688 16.31698302 1.92028067 18.88520388 1 22 C2.32 22.33 3.64 22.66 5 23 C4.34 23 3.68 23 3 23 C1.76788052 25.46423896 1.84220092 27.15234663 1.79467773 29.90869141 C1.7647599 31.44005234 1.7647599 31.44005234 1.73423767 33.00234985 C1.71752518 34.10759003 1.70081268 35.2128302 1.68359375 36.3515625 C1.66281265 37.4807309 1.64203156 38.60989929 1.62062073 39.77328491 C1.55508665 43.39045972 1.49622226 47.00770881 1.4375 50.625 C1.39431846 53.07292444 1.35070429 55.52084128 1.30664062 57.96875 C1.19940133 63.9790875 1.09764213 69.98949935 1 76 C0.67 76 0.34 76 0 76 C0 50.92 0 25.84 0 0 Z " fill="#54321C" transform="translate(546,23)"/>
<path d="M0 0 C10.89 0 21.78 0 33 0 C33.495 1.485 33.495 1.485 34 3 C22.78 3 11.56 3 0 3 C0 2.01 0 1.02 0 0 Z " fill="#040506" transform="translate(235,5)"/>
<path d="M0 0 C0.33 0 0.66 0 1 0 C1 2.31 1 4.62 1 7 C3.97 7.495 3.97 7.495 7 8 C6.67854004 8.48952148 6.35708008 8.97904297 6.02587891 9.48339844 C4.58124464 13.02725612 4.64275674 16.49375905 4.5859375 20.265625 C4.56657135 21.05902283 4.5472052 21.85242065 4.5272522 22.66986084 C4.46761639 25.19646557 4.42113557 27.72311625 4.375 30.25 C4.33680545 31.96616537 4.29775285 33.68231187 4.2578125 35.3984375 C4.16192814 39.59880456 4.07783833 43.79926134 4 48 C3.67 48 3.34 48 3 48 C3 35.79 3 23.58 3 11 C1.02 11 -0.96 11 -3 11 C-4 10 -4 10 -4.0625 6.9375 C-4.041875 5.968125 -4.02125 4.99875 -4 4 C-3.01 3.67 -2.02 3.34 -1 3 C-0.67 2.01 -0.34 1.02 0 0 Z " fill="#241C15" transform="translate(386,9)"/>
<path d="M0 0 C0.99 0 1.98 0 3 0 C4.65 5.28 6.3 10.56 8 16 C7.34 16 6.68 16 6 16 C5.67 16.99 5.34 17.98 5 19 C2.08893641 14.63340461 0.74599925 9.94699788 -1 5 C-5.95 4.67 -10.9 4.34 -16 4 C-16 3.67 -16 3.34 -16 3 C-11.05 3 -6.1 3 -1 3 C-0.67 2.01 -0.34 1.02 0 0 Z " fill="#171410" transform="translate(489,5)"/>
<path d="M0 0 C0.33 0 0.66 0 1 0 C1 9.9 1 19.8 1 30 C0.01 29.67 -0.98 29.34 -2 29 C-2 20.42 -2 11.84 -2 3 C-1.34 3 -0.68 3 0 3 C0 2.01 0 1.02 0 0 Z " fill="#050605" transform="translate(175,39)"/>
<path d="M0 0 C5 0 5 0 6.875 1.0625 C8.64782183 4.11569315 7.69235306 6.66411708 7 10 C4.69 10.66 2.38 11.32 0 12 C0 8.04 0 4.08 0 0 Z " fill="#583319" transform="translate(264,22)"/>
<path d="M0 0 C1.98 0 3.96 0 6 0 C6 4.62 6 9.24 6 14 C5.67 12.68 5.34 11.36 5 10 C3.68 10 2.36 10 1 10 C1 8.02 1 6.04 1 4 C-7.58 4 -16.16 4 -25 4 C-25 3.67 -25 3.34 -25 3 C-17.08 3 -9.16 3 -1 3 C-0.67 2.01 -0.34 1.02 0 0 Z " fill="#1A1917" transform="translate(374,5)"/>
<path d="M0 0 C0.08096803 1.45742463 0.13917774 2.91612807 0.1875 4.375 C0.22230469 5.18710938 0.25710938 5.99921875 0.29296875 6.8359375 C0.19628906 7.55007812 0.09960938 8.26421875 0 9 C-0.99 9.66 -1.98 10.32 -3 11 C-3.33 11.99 -3.66 12.98 -4 14 C-5.65 14 -7.3 14 -9 14 C-8.7215625 13.1028125 -8.7215625 13.1028125 -8.4375 12.1875 C-7.77906313 9.83591238 -7.77906313 9.83591238 -9 7 C-7.890625 5.17578125 -7.890625 5.17578125 -6.25 3.3125 C-5.71890625 2.68988281 -5.1878125 2.06726563 -4.640625 1.42578125 C-3 0 -3 0 0 0 Z " fill="#4F2B13" transform="translate(570,64)"/>
<path d="M0 0 C0.33 0 0.66 0 1 0 C1.33 1.98 1.66 3.96 2 6 C2.99 6 3.98 6 5 6 C5 8.64 5 11.28 5 14 C5.99 13.67 6.98 13.34 8 13 C8.33 10.03 8.66 7.06 9 4 C9.33 4 9.66 4 10 4 C10 6.31 10 8.62 10 11 C10.99 11.33 11.98 11.66 13 12 C10.93374609 14.79551999 9.93117808 15.01067926 6.375 15.5625 C4.704375 15.7790625 4.704375 15.7790625 3 16 C2.67 16.66 2.34 17.32 2 18 C1.34 18.33 0.68 18.66 0 19 C0.185625 18.236875 0.37125 17.47375 0.5625 16.6875 C1.22819173 13.91032625 1.22819173 13.91032625 0 11 C-0.0685495 9.10529184 -0.08480372 7.2083166 -0.0625 5.3125 C-0.05347656 4.31863281 -0.04445313 3.32476562 -0.03515625 2.30078125 C-0.02355469 1.54152344 -0.01195312 0.78226562 0 0 Z " fill="#452815" transform="translate(339,5)"/>
<path d="M0 0 C0.598125 0.45375 1.19625 0.9075 1.8125 1.375 C5.85817355 4.38035749 8.17121906 5.30136897 13.1875 5.625 C14.27417969 5.69976562 15.36085937 5.77453125 16.48046875 5.8515625 C17.72763672 5.92503906 17.72763672 5.92503906 19 6 C19.33 6.99 19.66 7.98 20 9 C17.4149133 9.13526616 14.83691248 9.23417653 12.25 9.3125 C11.52039063 9.35439453 10.79078125 9.39628906 10.0390625 9.43945312 C6.16343224 9.52753563 4.40658455 9.36680998 1.484375 6.73046875 C0 4 0 4 0 0 Z " fill="#060808" transform="translate(129,72)"/>
<path d="M0 0 C0.66 0 1.32 0 2 0 C1.61784075 2.52978658 1.33574032 3.70854198 -0.62890625 5.4140625 C-1.26699219 5.81367187 -1.90507812 6.21328125 -2.5625 6.625 C-4.46605303 7.78640808 -4.46605303 7.78640808 -6 9 C-6 9.66 -6 10.32 -6 11 C-7.45463481 11.38909985 -8.91391207 11.76088029 -10.375 12.125 C-11.18710937 12.33382812 -11.99921875 12.54265625 -12.8359375 12.7578125 C-13.55007813 12.83773437 -14.26421875 12.91765625 -15 13 C-15.66 12.34 -16.32 11.68 -17 11 C-14.63191989 8.25923843 -12.45542761 7.2513002 -9.0625 6.0625 C-5.16556196 4.59334869 -2.75064299 3.20908349 0 0 Z " fill="#171715" transform="translate(292,68)"/>
<path d="M0 0 C0.33 0.66 0.66 1.32 1 2 C1.99 2 2.98 2 4 2 C3.67 3.32 3.34 4.64 3 6 C3.99 5.34 4.98 4.68 6 4 C6.33 5.32 6.66 6.64 7 8 C3.71480525 9.09506492 1.26336585 9.09960608 -2.1875 9.0625 C-3.81751953 9.04896484 -3.81751953 9.04896484 -5.48046875 9.03515625 C-6.31191406 9.02355469 -7.14335937 9.01195313 -8 9 C-6.8553125 7.88625 -6.8553125 7.88625 -5.6875 6.75 C-3.5606298 4.5736677 -1.7440044 2.47832204 0 0 Z " fill="#502C16" transform="translate(518,106)"/>
<path d="M0 0 C0 0.99 0 1.98 0 3 C-2.76565382 3.92188461 -4.38283702 4.11785222 -7.23046875 4.09765625 C-8.03291016 4.09443359 -8.83535156 4.09121094 -9.66210938 4.08789062 C-10.49548828 4.07951172 -11.32886719 4.07113281 -12.1875 4.0625 C-13.03248047 4.05798828 -13.87746094 4.05347656 -14.74804688 4.04882812 C-16.83206155 4.03705403 -18.91603977 4.0191189 -21 4 C-21 3.67 -21 3.34 -21 3 C-19.35 3 -17.7 3 -16 3 C-15.67 2.01 -15.34 1.02 -15 0 C-12.87562788 -0.19448477 -10.75046809 -0.38038289 -8.625 -0.5625 C-7.44164062 -0.66691406 -6.25828125 -0.77132812 -5.0390625 -0.87890625 C-2 -1 -2 -1 0 0 Z " fill="#13100D" transform="translate(277,78)"/>
<path d="M0 0 C0.495 0.70125 0.99 1.4025 1.5 2.125 C-2.50003553 5.2218017 -5.64740404 5.45030721 -10.51171875 5.42578125 C-12.5 5.125 -12.5 5.125 -14.5 3.125 C-10.45924893 -0.57902181 -4.73148356 -3.54861267 0 0 Z " fill="#242221" transform="translate(350.5,63.875)"/>
<path d="M0 0 C0.83144531 0.144375 1.66289062 0.28875 2.51953125 0.4375 C3.60621094 0.623125 4.69289063 0.80875 5.8125 1 C6.89144531 1.185625 7.97039062 1.37125 9.08203125 1.5625 C12.00270898 2.07413786 12.00270898 2.07413786 15 2 C15 3.32 15 4.64 15 6 C10.05 6 5.1 6 0 6 C0 4.02 0 2.04 0 0 Z " fill="#070706" transform="translate(411,62)"/>
<path d="M0 0 C1.65 0 3.3 0 5 0 C5.33 4.62 5.66 9.24 6 14 C4.35 14 2.7 14 1 14 C1.33 10.7 1.66 7.4 2 4 C1.34 4 0.68 4 0 4 C-0.33 3.01 -0.66 2.02 -1 1 C-0.67 0.67 -0.34 0.34 0 0 Z " fill="#070808" transform="translate(334,5)"/>
<path d="M0 0 C0 2.64 0 5.28 0 8 C-4.62 8 -9.24 8 -14 8 C-13.67 7.01 -13.34 6.02 -13 5 C-10.03 5 -7.06 5 -4 5 C-4 4.34 -4 3.68 -4 3 C-1.34615385 0 -1.34615385 0 0 0 Z " fill="#070909" transform="translate(218,43)"/>
<path d="M0 0 C0.66 0.33 1.32 0.66 2 1 C1.01 2.485 1.01 2.485 0 4 C0.66 4.66 1.32 5.32 2 6 C2 9 2 9 1 11 C-3.95 9.02 -3.95 9.02 -9 7 C-7.79492039 4.58984078 -6.83672718 4.19684272 -4.5 2.9375 C-2.0882696 1.6858579 -2.0882696 1.6858579 0 0 Z " fill="#1C1C1B" transform="translate(289,35)"/>
<path d="M0 0 C0.33 0 0.66 0 1 0 C0.96519531 1.15628906 0.96519531 1.15628906 0.9296875 2.3359375 C0.91164063 3.33882813 0.89359375 4.34171875 0.875 5.375 C0.85179687 6.37273437 0.82859375 7.37046875 0.8046875 8.3984375 C0.72783152 11.16262173 0.72783152 11.16262173 3 13 C-0.96 13 -4.92 13 -9 13 C-8.67 11.68 -8.34 10.36 -8 9 C-5.36 9 -2.72 9 0 9 C0 6.03 0 3.06 0 0 Z " fill="#282722" transform="translate(438,69)"/>
<path d="M0 0 C2.31 0.33 4.62 0.66 7 1 C6.67 1.66 6.34 2.32 6 3 C11.94 3.33 17.88 3.66 24 4 C24 4.33 24 4.66 24 5 C13.11 5 2.22 5 -9 5 C-9 4.67 -9 4.34 -9 4 C-5.04 4 -1.08 4 3 4 C3 3.34 3 2.68 3 2 C2.01 1.67 1.02 1.34 0 1 C0 0.67 0 0.34 0 0 Z " fill="#3E2514" transform="translate(241,0)"/>
<path d="M0 0 C2.3125 2.5 2.3125 2.5 4 5 C2.35 5.33 0.7 5.66 -1 6 C-1.33 5.34 -1.66 4.68 -2 4 C-3.98 4.66 -5.96 5.32 -8 6 C-8 4.68 -8 3.36 -8 2 C-4.75846834 -0.1610211 -3.76307099 -0.64247553 0 0 Z " fill="#502F18" transform="translate(67,101)"/>
<path d="M0 0 C0.33 0.99 0.66 1.98 1 3 C0 4 0 4 -2.94140625 4.09765625 C-4.73384766 4.08025391 -4.73384766 4.08025391 -6.5625 4.0625 C-8.35880859 4.04896484 -8.35880859 4.04896484 -10.19140625 4.03515625 C-11.11824219 4.02355469 -12.04507812 4.01195313 -13 4 C-13 3.34 -13 2.68 -13 2 C-8.46298506 0.54815522 -4.81938524 -0.23509196 0 0 Z " fill="#0B0B0A" transform="translate(349,79)"/>
<path d="M0 0 C0.33 0.66 0.66 1.32 1 2 C0.34 2 -0.32 2 -1 2 C-0.67 3.32 -0.34 4.64 0 6 C-4.455 7.485 -4.455 7.485 -9 9 C-9.33 7.35 -9.66 5.7 -10 4 C-6.7 2.68 -3.4 1.36 0 0 Z " fill="#1E1D1A" transform="translate(358,74)"/>
<path d="M0 0 C2.31 0 4.62 0 7 0 C7 1.32 7 2.64 7 4 C6.01 4 5.02 4 4 4 C3.71125 4.598125 3.4225 5.19625 3.125 5.8125 C2 8 2 8 0 11 C0 7.37 0 3.74 0 0 Z " fill="#121310" transform="translate(165,67)"/>
<path d="M0 0 C2.86392794 3.52830761 5.58784278 7.12984917 8.25 10.8125 C8.95640625 11.78832031 9.6628125 12.76414062 10.390625 13.76953125 C10.92171875 14.50558594 11.4528125 15.24164063 12 16 C11.01 16.33 10.02 16.66 9 17 C8.401875 16.01 7.80375 15.02 7.1875 14 C6.465625 13.01 5.74375 12.02 5 11 C4.01 11 3.02 11 2 11 C0.80712589 7.12315913 0 4.08378077 0 0 Z " fill="#1D1E1A" transform="translate(112,43)"/>
<path d="M0 0 C0.66 0 1.32 0 2 0 C1.67 1.65 1.34 3.3 1 5 C-3.29 5 -7.58 5 -12 5 C-10 2 -10 2 -7.87109375 1.5234375 C-7.06800781 1.47445312 -6.26492187 1.42546875 -5.4375 1.375 C-2.41923553 1.39637058 -2.41923553 1.39637058 0 0 Z " fill="#040506" transform="translate(210,63)"/>
<path d="M0 0 C1.16781006 0.00523682 2.33562012 0.01047363 3.53881836 0.01586914 C4.79887695 0.0190918 6.05893555 0.02231445 7.35717773 0.02563477 C8.6976732 0.03399136 10.03816799 0.04245632 11.37866211 0.05102539 C12.72306153 0.05603879 14.06746271 0.06060197 15.41186523 0.06469727 C18.71334151 0.07653051 22.01473014 0.09301568 25.31616211 0.11352539 C25.31616211 0.44352539 25.31616211 0.77352539 25.31616211 1.11352539 C16.73616211 1.44352539 8.15616211 1.77352539 -0.68383789 2.11352539 C-1.34383789 4.09352539 -2.00383789 6.07352539 -2.68383789 8.11352539 C-3.01383789 8.11352539 -3.34383789 8.11352539 -3.68383789 8.11352539 C-3.72625512 5.78057764 -3.72476726 3.44649972 -3.68383789 1.11352539 C-2.68383789 0.11352539 -2.68383789 0.11352539 0 0 Z " fill="#1B130C" transform="translate(84.683837890625,3.886474609375)"/>
<path d="M0 0 C0.33 0 0.66 0 1 0 C1.12375 1.093125 1.2475 2.18625 1.375 3.3125 C1.75464801 7.07381802 1.75464801 7.07381802 4 10 C4.1953125 13.13671875 4.1953125 13.13671875 4.125 16.6875 C4.10695312 17.86699219 4.08890625 19.04648438 4.0703125 20.26171875 C4.03550781 21.61716797 4.03550781 21.61716797 4 23 C3.67 23 3.34 23 3 23 C2.67 20.36 2.34 17.72 2 15 C1.67 15 1.34 15 1 15 C-0.32286246 10.03926578 -0.08893197 5.08888488 0 0 Z " fill="#1F1C17" transform="translate(224,58)"/>
<path d="M0 0 C1.98 0 3.96 0 6 0 C5.49396008 2.16874252 5.00016187 3.99967627 4 6 C4.99 6 5.98 6 7 6 C6.67 7.32 6.34 8.64 6 10 C5.01 9.67 4.02 9.34 3 9 C2.05078125 6.93359375 2.05078125 6.93359375 1.3125 4.4375 C1.06113281 3.61121094 0.80976563 2.78492188 0.55078125 1.93359375 C0.36902344 1.29550781 0.18726563 0.65742188 0 0 Z " fill="#542F16" transform="translate(499,0)"/>
<path d="M0 0 C0.33 0 0.66 0 1 0 C1.05386629 2.12472576 1.09273071 4.24983652 1.125 6.375 C1.14820312 7.55835938 1.17140625 8.74171875 1.1953125 9.9609375 C1 13 1 13 -1 15 C-2.56095477 13.43904523 -2.16961928 11.90999105 -2.1875 9.75 C-2.15819716 6.07542339 -1.71100294 3.3150682 0 0 Z " fill="#0A0806" transform="translate(106,48)"/>
<path d="M0 0 C2 3 2 3 2 6 C1.34 6 0.68 6 0 6 C-0.66 7.65 -1.32 9.3 -2 11 C-2.66 11 -3.32 11 -4 11 C-3.56179109 6.44262737 -3.14958831 3.42346555 0 0 Z " fill="#2C251C" transform="translate(480,33)"/>
<path d="M0 0 C0.99 0 1.98 0 3 0 C3 0.66 3 1.32 3 2 C2.34 2 1.68 2 1 2 C0.67 10.58 0.34 19.16 0 28 C-0.33 28 -0.66 28 -1 28 C-1.02886338 23.52084672 -1.04675187 19.04171709 -1.0625 14.5625 C-1.07087891 13.28310547 -1.07925781 12.00371094 -1.08789062 10.68554688 C-1.09111328 9.47060547 -1.09433594 8.25566406 -1.09765625 7.00390625 C-1.10289307 5.87799072 -1.10812988 4.7520752 -1.11352539 3.59204102 C-1 1 -1 1 0 0 Z " fill="#211D1A" transform="translate(411,17)"/>
<path d="M0 0 C0.99 0 1.98 0 3 0 C2.67 1.98 2.34 3.96 2 6 C1.01 5.67 0.02 5.34 -1 5 C-3.56634861 4.77281504 -6.11678107 4.58391816 -8.6875 4.4375 C-9.7403418 4.37272461 -9.7403418 4.37272461 -10.81445312 4.30664062 C-12.54275206 4.2008264 -14.2713511 4.09993419 -16 4 C-16 3.67 -16 3.34 -16 3 C-11.05 3 -6.1 3 -1 3 C-0.67 2.01 -0.34 1.02 0 0 Z " fill="#201F1D" transform="translate(489,5)"/>
<path d="M0 0 C0.66 0 1.32 0 2 0 C2 4.95 2 9.9 2 15 C0.68 14.67 -0.64 14.34 -2 14 C-1.34 14 -0.68 14 0 14 C-0.08378906 13.07316406 -0.16757813 12.14632812 -0.25390625 11.19140625 C-0.35574219 9.99386719 -0.45757812 8.79632813 -0.5625 7.5625 C-0.71912109 5.77005859 -0.71912109 5.77005859 -0.87890625 3.94140625 C-0.91886719 2.97074219 -0.95882812 2.00007813 -1 1 C-0.67 0.67 -0.34 0.34 0 0 Z " fill="#614735" transform="translate(114,100)"/>
<path d="M0 0 C0.66 0.33 1.32 0.66 2 1 C4.54615009 1.23172827 7.07396225 1.41894529 9.625 1.5625 C10.33140625 1.60568359 11.0378125 1.64886719 11.765625 1.69335938 C13.51018537 1.79944751 15.25506697 1.90022889 17 2 C17 2.33 17 2.66 17 3 C15.35 3 13.7 3 12 3 C12 3.66 12 4.32 12 5 C11.34 5 10.68 5 10 5 C9.67 5.99 9.34 6.98 9 8 C8.67 6.68 8.34 5.36 8 4 C7.37351563 3.95101562 6.74703125 3.90203125 6.1015625 3.8515625 C5.28429687 3.77679688 4.46703125 3.70203125 3.625 3.625 C2.40683594 3.52058594 2.40683594 3.52058594 1.1640625 3.4140625 C-1 3 -1 3 -3 1 C-2.01 0.67 -1.02 0.34 0 0 Z " fill="#5B3117" transform="translate(210,30)"/>
<path d="M0 0 C0.33 0 0.66 0 1 0 C1.144375 0.763125 1.28875 1.52625 1.4375 2.3125 C1.9632594 5.08172908 1.9632594 5.08172908 3 8 C-1.5 12 -1.5 12 -6 12 C-6 11.34 -6 10.68 -6 10 C-5.34 10 -4.68 10 -4 10 C-4 9.34 -4 8.68 -4 8 C-2.68 8 -1.36 8 0 8 C0 5.36 0 2.72 0 0 Z " fill="#050505" transform="translate(418,9)"/>
<path d="M0 0 C1.98 0 3.96 0 6 0 C5.835 0.598125 5.67 1.19625 5.5 1.8125 C4.8885876 4.11344336 4.8885876 4.11344336 5 7 C3.02 6.34 1.04 5.68 -1 5 C-0.67 3.35 -0.34 1.7 0 0 Z " fill="#422613" transform="translate(469,61)"/>
<path d="M0 0 C0.99 0 1.98 0 3 0 C3 2.97 3 5.94 3 9 C1.68 8.67 0.36 8.34 -1 8 C-1 7.34 -1 6.68 -1 6 C-1.66 5.67 -2.32 5.34 -3 5 C-1.6875 2.5 -1.6875 2.5 0 0 Z " fill="#5C3922" transform="translate(567,64)"/>
<path d="M0 0 C3.3 0 6.6 0 10 0 C9.67 3.3 9.34 6.6 9 10 C8.34 8.68 7.68 7.36 7 6 C6.34 5.67 5.68 5.34 5 5 C5 4.01 5 3.02 5 2 C3.35 1.67 1.7 1.34 0 1 C0 0.67 0 0.34 0 0 Z " fill="#42210A" transform="translate(36,22)"/>
<path d="M0 0 C1.67542976 0.28604898 3.34385343 0.61781233 5 1 C5.1875 4.375 5.1875 4.375 5 8 C4.01 8.66 3.02 9.32 2 10 C1.87625 8.88625 1.7525 7.7725 1.625 6.625 C1.3534187 2.96896323 1.3534187 2.96896323 -1 1 C-0.67 0.67 -0.34 0.34 0 0 Z " fill="#080808" transform="translate(134,17)"/>
<path d="M0 0 C0.33 0 0.66 0 1 0 C1 1.98 1 3.96 1 6 C1.66 6 2.32 6 3 6 C2.67 7.65 2.34 9.3 2 11 C0.35 10.67 -1.3 10.34 -3 10 C-2.690625 9.46375 -2.38125 8.9275 -2.0625 8.375 C-0.82172561 5.6015043 -0.4090325 2.99957163 0 0 Z " fill="#090909" transform="translate(376,9)"/>
<path d="M0 0 C2.96175123 0.61277612 4.38058783 1.25372522 7 3 C7 3.66 7 4.32 7 5 C7.66 5 8.32 5 9 5 C9 5.66 9 6.32 9 7 C9.66 7.33 10.32 7.66 11 8 C10.01 8.33 9.02 8.66 8 9 C6.66368764 7.6905332 5.33102075 6.37734515 4 5.0625 C3.2575 4.33160156 2.515 3.60070312 1.75 2.84765625 C0 1 0 1 0 0 Z " fill="#593A26" transform="translate(77,103)"/>
<path d="M0 0 C-0.125 1.75 -0.125 1.75 -1 4 C-3.875 6.3125 -3.875 6.3125 -7 8 C-7.99 7.67 -8.98 7.34 -10 7 C-9.236875 6.401875 -8.47375 5.80375 -7.6875 5.1875 C-5.08664741 3.15995888 -5.08664741 3.15995888 -3.3125 1.25 C-2 0 -2 0 0 0 Z " fill="#262724" transform="translate(294,68)"/>
<path d="M0 0 C0.33 0 0.66 0 1 0 C1 3 1 6 1 9 C-0.65 9 -2.3 9 -4 9 C-3.35499066 5.51694958 -1.95865224 2.93797836 0 0 Z " fill="#060604" transform="translate(467,60)"/>
<path d="M0 0 C3.27286682 2.7819368 4.96427697 6.27954067 7 10 C6.01 10 5.02 10 4 10 C3.67 9.34 3.34 8.68 3 8 C2.01 7.67 1.02 7.34 0 7 C0 4.69 0 2.38 0 0 Z " fill="#222220" transform="translate(104,31)"/>
<path d="M0 0 C0.33 0 0.66 0 1 0 C1 1.98 1 3.96 1 6 C3.97 6.495 3.97 6.495 7 7 C7.33 8.32 7.66 9.64 8 11 C6.33333333 11 4.66666667 11 3 11 C2.67 10.01 2.34 9.02 2 8 C1.34 7.67 0.68 7.34 0 7 C0 4.69 0 2.38 0 0 Z " fill="#1B1A15" transform="translate(235,10)"/>
<path d="M0 0 C0.66 0.99 1.32 1.98 2 3 C1.01 3.495 1.01 3.495 0 4 C-0.6496875 5.2684375 -0.6496875 5.2684375 -1.3125 6.5625 C-1.869375 7.366875 -2.42625 8.17125 -3 9 C-5.6875 9.3125 -5.6875 9.3125 -8 9 C-6.8553125 7.88625 -6.8553125 7.88625 -5.6875 6.75 C-3.5606298 4.5736677 -1.7440044 2.47832204 0 0 Z " fill="#55331D" transform="translate(518,106)"/>
<path d="M0 0 C2.31 0.66 4.62 1.32 7 2 C6.67 2.99 6.34 3.98 6 5 C6.33 5.99 6.66 6.98 7 8 C6.01 8.495 6.01 8.495 5 9 C3.35 6.03 1.7 3.06 0 0 Z " fill="#1E1D1B" transform="translate(109,10)"/>
<path d="M0 0 C0.33 0 0.66 0 1 0 C1 2.97 1 5.94 1 9 C0.01 9.33 -0.98 9.66 -2 10 C-2.1953125 3.9453125 -2.1953125 3.9453125 -2 2 C-1.34 1.34 -0.68 0.68 0 0 Z " fill="#030303" transform="translate(347,9)"/>
<path d="M0 0 C-2.54982433 1.27491216 -4.16465424 1.02596616 -7.0078125 0.87890625 C-7.99394531 0.83056641 -8.98007813 0.78222656 -9.99609375 0.73242188 C-11.54490234 0.64831055 -11.54490234 0.64831055 -13.125 0.5625 C-14.16527344 0.51029297 -15.20554687 0.45808594 -16.27734375 0.40429688 C-18.85185116 0.27439054 -21.42599296 0.13941748 -24 0 C-24 -0.33 -24 -0.66 -24 -1 C-20.37584067 -1.22523024 -16.75075781 -1.42731308 -13.125 -1.625 C-12.09246094 -1.68945312 -11.05992188 -1.75390625 -9.99609375 -1.8203125 C-9.00996094 -1.871875 -8.02382812 -1.9234375 -7.0078125 -1.9765625 C-6.09660645 -2.02893066 -5.18540039 -2.08129883 -4.24658203 -2.13525391 C-2 -2 -2 -2 0 0 Z " fill="#353736" transform="translate(110,9)"/>
<path d="M0 0 C1.32 0 2.64 0 4 0 C3.34 1.65 2.68 3.3 2 5 C-0.97 5 -3.94 5 -7 5 C-7 4.67 -7 4.34 -7 4 C-5.824375 3.8453125 -5.824375 3.8453125 -4.625 3.6875 C-1.66954819 3.22404978 -1.66954819 3.22404978 0 0 Z " fill="#4D2C15" transform="translate(390,0)"/>
<path d="M0 0 C1.485 0.99 1.485 0.99 3 2 C4.32567199 2.68177416 5.65753688 3.35191436 7 4 C7 4.66 7 5.32 7 6 C4.36 6 1.72 6 -1 6 C-1.042721 4.33388095 -1.04063832 2.66617115 -1 1 C-0.67 0.67 -0.34 0.34 0 0 Z " fill="#522F17" transform="translate(549,85)"/>
<path d="M0 0 C6.27 0 12.54 0 19 0 C18.01 0.99 17.02 1.98 16 3 C15.01 2.67 14.02 2.34 13 2 C10.77425665 1.77548542 8.54418481 1.59217122 6.3125 1.4375 C5.13300781 1.35371094 3.95351563 1.26992187 2.73828125 1.18359375 C1.83464844 1.12300781 0.93101562 1.06242187 0 1 C0 0.67 0 0.34 0 0 Z " fill="#583923" transform="translate(497,100)"/>
<path d="M0 0 C4.6875 3.61328125 4.6875 3.61328125 6 5 C6 5.99 6 6.98 6 8 C2.17053157 6.54744301 0.87949705 4.57104439 -1 1 C-0.67 0.67 -0.34 0.34 0 0 Z " fill="#060909" transform="translate(313,69)"/>
<path d="M0 0 C1.65 0 3.3 0 5 0 C5.33 1.32 5.66 2.64 6 4 C5.34 4 4.68 4 4 4 C4 5.98 4 7.96 4 10 C3.67 10 3.34 10 3 10 C2.67 7.69 2.34 5.38 2 3 C1.34 3 0.68 3 0 3 C0 2.01 0 1.02 0 0 Z " fill="#1B1C1A" transform="translate(383,67)"/>
<path d="M0 0 C0.66 0 1.32 0 2 0 C2 1.65 2 3.3 2 5 C-0.31 5.66 -2.62 6.32 -5 7 C-5 6.01 -5 5.02 -5 4 C-4.360625 3.71125 -3.72125 3.4225 -3.0625 3.125 C-0.84793921 2.17176549 -0.84793921 2.17176549 0 0 Z " fill="#272826" transform="translate(489,65)"/>
<path d="M0 0 C1.54571278 2.31856917 2.79618552 4.50638429 4 7 C2 7 0 7 -2 7 C-2.6875 5.1875 -2.6875 5.1875 -3 3 C-1.5625 1.25 -1.5625 1.25 0 0 Z " fill="#21221F" transform="translate(313,63)"/>
<path d="M0 0 C4.05445642 -0.43132515 5.54970958 -0.30019361 9 2 C8 3 8 3 5.71484375 3.09765625 C4.34005859 3.08025391 4.34005859 3.08025391 2.9375 3.0625 C2.01839844 3.05347656 1.09929687 3.04445313 0.15234375 3.03515625 C-0.55792969 3.02355469 -1.26820313 3.01195313 -2 3 C-1.34 2.01 -0.68 1.02 0 0 Z " fill="#44250F" transform="translate(399,92)"/>
<path d="M0 0 C0.33 0 0.66 0 1 0 C1 3.3 1 6.6 1 10 C-0.65 10.33 -2.3 10.66 -4 11 C-4 10.01 -4 9.02 -4 8 C-3.01 8 -2.02 8 -1 8 C-0.67 5.36 -0.34 2.72 0 0 Z " fill="#272926" transform="translate(85,71)"/>
<path d="M0 0 C1.98 0.66 3.96 1.32 6 2 C4.875 3.5 4.875 3.5 3 5 C-0.1875 5.1875 -0.1875 5.1875 -3 5 C-1.68 4.67 -0.36 4.34 1 4 C1 3.34 1 2.68 1 2 C0.34 1.67 -0.32 1.34 -1 1 C-0.67 0.67 -0.34 0.34 0 0 Z " fill="#171513" transform="translate(467,65)"/>
<path d="M0 0 C0.99 0.66 1.98 1.32 3 2 C3 2.99 3 3.98 3 5 C0.03 4.505 0.03 4.505 -3 4 C-2.67 3.01 -2.34 2.02 -2 1 C-1.34 0.67 -0.68 0.34 0 0 Z " fill="#1E201F" transform="translate(107,65)"/>
<path d="M0 0 C1.22589844 0.15275391 1.22589844 0.15275391 2.4765625 0.30859375 C3.41628906 0.43427734 3.41628906 0.43427734 4.375 0.5625 C4.375 0.8925 4.375 1.2225 4.375 1.5625 C1.29882812 1.85546875 1.29882812 1.85546875 -1.77734375 2.1484375 C-2.38707031 2.28507812 -2.99679688 2.42171875 -3.625 2.5625 C-3.955 3.2225 -4.285 3.8825 -4.625 4.5625 C-5.615 4.2325 -6.605 3.9025 -7.625 3.5625 C-7.295 2.5725 -6.965 1.5825 -6.625 0.5625 C-4.10446405 -0.69776798 -2.7707902 -0.35624445 0 0 Z " fill="#2C2C2B" transform="translate(219.625,56.4375)"/>
<path d="M0 0 C4.04648443 1.34882814 4.95502599 3.34826069 7 7 C6.67 7.99 6.34 8.98 6 10 C4.99421411 8.71283353 3.99553202 7.42011342 3 6.125 C2.443125 5.40570313 1.88625 4.68640625 1.3125 3.9453125 C0 2 0 2 0 0 Z " fill="#191A1B" transform="translate(128,37)"/>
<path d="M0 0 C0.33 0 0.66 0 1 0 C1 2.31 1 4.62 1 7 C1.99 7.33 2.98 7.66 4 8 C2.75 9.5625 2.75 9.5625 1 11 C-1.1875 10.6875 -1.1875 10.6875 -3 10 C-2.34 9.67 -1.68 9.34 -1 9 C-0.53348793 6.87423218 -0.53348793 6.87423218 -0.375 4.4375 C-0.30023438 3.61121094 -0.22546875 2.78492188 -0.1484375 1.93359375 C-0.09945313 1.29550781 -0.05046875 0.65742188 0 0 Z " fill="#2C2C27" transform="translate(348,9)"/>
<path d="M0 0 C2.00720923 0.28674418 4.0085944 0.61866701 6 1 C5.34 1.66 4.68 2.32 4 3 C3.67 3.66 3.34 4.32 3 5 C0.69 5 -1.62 5 -4 5 C-2.68 4.67 -1.36 4.34 0 4 C-0.33 3.01 -0.66 2.02 -1 1 C-0.67 0.67 -0.34 0.34 0 0 Z " fill="#1B1A16" transform="translate(131,15)"/>
<path d="M0 0 C1.32 0.66 2.64 1.32 4 2 C3.67 2.66 3.34 3.32 3 4 C0.36 4 -2.28 4 -5 4 C-3.35 2.68 -1.7 1.36 0 0 Z " fill="#FAF9F8" transform="translate(507,111)"/>
<path d="M0 0 C1.4540625 0.0309375 1.4540625 0.0309375 2.9375 0.0625 C2.6075 1.3825 2.2775 2.7025 1.9375 4.0625 C0.6175 4.0625 -0.7025 4.0625 -2.0625 4.0625 C-2.0625 3.4025 -2.0625 2.7425 -2.0625 2.0625 C-2.7225 1.7325 -3.3825 1.4025 -4.0625 1.0625 C-3.0625 0.0625 -3.0625 0.0625 0 0 Z " fill="#53311A" transform="translate(180.0625,81.9375)"/>
<path d="M0 0 C2.1640625 -0.29296875 2.1640625 -0.29296875 4.625 -0.1875 C5.44226563 -0.16042969 6.25953125 -0.13335937 7.1015625 -0.10546875 C8.04128906 -0.05326172 8.04128906 -0.05326172 9 0 C9 0.33 9 0.66 9 1 C6.69 1.33 4.38 1.66 2 2 C2 2.66 2 3.32 2 4 C0.68 3.67 -0.64 3.34 -2 3 C-1.34 2.01 -0.68 1.02 0 0 Z " fill="#201D18" transform="translate(334,79)"/>
<path d="M0 0 C2.97 0.495 2.97 0.495 6 1 C2.67692308 4.93846154 2.67692308 4.93846154 -0.75 5.25 C-1.4925 5.1675 -2.235 5.085 -3 5 C-2.01 4.34 -1.02 3.68 0 3 C0 2.01 0 1.02 0 0 Z " fill="#171410" transform="translate(85,15)"/>
<path d="M0 0 C0.99 0.33 1.98 0.66 3 1 C4.1875 3.5625 4.1875 3.5625 5 6 C4.01 6 3.02 6 2 6 C1.34 5.34 0.68 4.68 0 4 C0 2.68 0 1.36 0 0 Z " fill="#0D0C0B" transform="translate(109,5)"/>
<path d="M0 0 C0.99 0.33 1.98 0.66 3 1 C3 1.99 3 2.98 3 4 C1.02 4 -0.96 4 -3 4 C-2.67 3.01 -2.34 2.02 -2 1 C-1.34 0.67 -0.68 0.34 0 0 Z " fill="#070706" transform="translate(264,34)"/>
<path d="M0 0 C2.64 0 5.28 0 8 0 C6.125 1.0625 6.125 1.0625 4 2 C3.34 1.67 2.68 1.34 2 1 C2 1.99 2 2.98 2 4 C1.01 3.67 0.02 3.34 -1 3 C-0.67 2.01 -0.34 1.02 0 0 Z " fill="#462713" transform="translate(477,61)"/>
<path d="M0 0 C0.66 0 1.32 0 2 0 C2.33 1.65 2.66 3.3 3 5 C2.01 5.66 1.02 6.32 0 7 C-0.66 5.35 -1.32 3.7 -2 2 C-1.34 2 -0.68 2 0 2 C0 1.34 0 0.68 0 0 Z " fill="#1F1E1B" transform="translate(487,59)"/>
<path d="M0 0 C2.99324263 1.0975223 3.84610901 1.67682892 5.25 4.625 C5.4975 5.40875 5.745 6.1925 6 7 C1.2 4.53846154 1.2 4.53846154 0.1875 1.8125 C0.125625 1.214375 0.06375 0.61625 0 0 Z " fill="#080909" transform="translate(115,53)"/>
<path d="M0 0 C2 1.1875 2 1.1875 4 3 C4.25 5.6875 4.25 5.6875 4 8 C2.35 6.68 0.7 5.36 -1 4 C-0.67 2.68 -0.34 1.36 0 0 Z " fill="#060607" transform="translate(271,48)"/>
<path d="M0 0 C0.99 0 1.98 0 3 0 C2.34 1.98 1.68 3.96 1 6 C0.01 6 -0.98 6 -2 6 C-1.34 4.02 -0.68 2.04 0 0 Z " fill="#161717" transform="translate(212,61)"/>
</svg>
